<ttFont>
    <TTGlyph name="A" xMin="26" yMin="0" xMax="549" yMax="629">
      <contour>
        <pt x="242" y="629" on="1"/>
        <pt x="338" y="629" on="1"/>
        <pt x="549" y="0" on="1"/>
        <pt x="467" y="0" on="1"/>
        <pt x="413" y="160" on="1"/>
        <pt x="163" y="160" on="1"/>
        <pt x="109" y="0" on="1"/>
        <pt x="26" y="0" on="1"/>
      </contour>
      <contour>
        <pt x="184" y="222" on="1"/>
        <pt x="393" y="222" on="1"/>
        <pt x="289" y="532" on="1"/>
      </contour>
    </TTGlyph>
    <TTGlyph name="Aacute" xMin="26" yMin="0" xMax="549" yMax="860">
      <contour>
        <pt x="242" y="629" on="1"/>
        <pt x="338" y="629" on="1"/>
        <pt x="549" y="0" on="1"/>
        <pt x="467" y="0" on="1"/>
        <pt x="413" y="160" on="1"/>
        <pt x="163" y="160" on="1"/>
        <pt x="109" y="0" on="1"/>
        <pt x="26" y="0" on="1"/>
      </contour>
      <contour>
        <pt x="184" y="222" on="1"/>
        <pt x="393" y="222" on="1"/>
        <pt x="289" y="532" on="1"/>
      </contour>
      <contour>
        <pt x="423" y="790" on="1"/>
        <pt x="179" y="677" on="1"/>
        <pt x="156" y="727" on="1"/>
        <pt x="391" y="860" on="1"/>
      </contour>
    </TTGlyph>
    <TTGlyph name="Acircumflex" xMin="26" yMin="0" xMax="549" yMax="872">
      <contour>
        <pt x="242" y="629" on="1"/>
        <pt x="338" y="629" on="1"/>
        <pt x="549" y="0" on="1"/>
        <pt x="467" y="0" on="1"/>
        <pt x="413" y="160" on="1"/>
        <pt x="163" y="160" on="1"/>
        <pt x="109" y="0" on="1"/>
        <pt x="26" y="0" on="1"/>
      </contour>
      <contour>
        <pt x="184" y="222" on="1"/>
        <pt x="393" y="222" on="1"/>
        <pt x="289" y="532" on="1"/>
      </contour>
      <contour>
        <pt x="469" y="716" on="1"/>
        <pt x="419" y="677" on="1"/>
        <pt x="290" y="785" on="1"/>
        <pt x="160" y="677" on="1"/>
        <pt x="110" y="716" on="1"/>
        <pt x="290" y="872" on="1"/>
      </contour>
    </TTGlyph>
    <TTGlyph name="Adieresis" xMin="26" yMin="0" xMax="549" yMax="835">
      <contour>
        <pt x="242" y="629" on="1"/>
        <pt x="338" y="629" on="1"/>
        <pt x="549" y="0" on="1"/>
        <pt x="467" y="0" on="1"/>
        <pt x="413" y="160" on="1"/>
        <pt x="163" y="160" on="1"/>
        <pt x="109" y="0" on="1"/>
        <pt x="26" y="0" on="1"/>
      </contour>
      <contour>
        <pt x="184" y="222" on="1"/>
        <pt x="393" y="222" on="1"/>
        <pt x="289" y="532" on="1"/>
      </contour>
      <contour>
        <pt x="203" y="735" on="0"/>
        <pt x="174" y="764" on="0"/>
        <pt x="174" y="806" on="0"/>
        <pt x="203" y="835" on="0"/>
        <pt x="226" y="835" on="1"/>
        <pt x="249" y="835" on="0"/>
        <pt x="280" y="806" on="0"/>
        <pt x="280" y="764" on="0"/>
        <pt x="249" y="735" on="0"/>
        <pt x="226" y="735" on="1"/>
      </contour>
      <contour>
        <pt x="372" y="735" on="0"/>
        <pt x="342" y="764" on="0"/>
        <pt x="342" y="806" on="0"/>
        <pt x="372" y="835" on="0"/>
        <pt x="417" y="835" on="0"/>
        <pt x="448" y="806" on="0"/>
        <pt x="448" y="764" on="0"/>
        <pt x="417" y="735" on="0"/>
      </contour>
    </TTGlyph>
    <TTGlyph name="Agrave" xMin="26" yMin="0" xMax="549" yMax="860">
      <contour>
        <pt x="242" y="629" on="1"/>
        <pt x="338" y="629" on="1"/>
        <pt x="549" y="0" on="1"/>
        <pt x="467" y="0" on="1"/>
        <pt x="413" y="160" on="1"/>
        <pt x="163" y="160" on="1"/>
        <pt x="109" y="0" on="1"/>
        <pt x="26" y="0" on="1"/>
      </contour>
      <contour>
        <pt x="184" y="222" on="1"/>
        <pt x="393" y="222" on="1"/>
        <pt x="289" y="532" on="1"/>
      </contour>
      <contour>
        <pt x="190" y="860" on="1"/>
        <pt x="425" y="727" on="1"/>
        <pt x="402" y="677" on="1"/>
        <pt x="157" y="790" on="1"/>
      </contour>
    </TTGlyph>
    <TTGlyph name="Atilde" xMin="26" yMin="0" xMax="549" yMax="842">
      <contour>
        <pt x="242" y="629" on="1"/>
        <pt x="338" y="629" on="1"/>
        <pt x="549" y="0" on="1"/>
        <pt x="467" y="0" on="1"/>
        <pt x="413" y="160" on="1"/>
        <pt x="163" y="160" on="1"/>
        <pt x="109" y="0" on="1"/>
        <pt x="26" y="0" on="1"/>
      </contour>
      <contour>
        <pt x="184" y="222" on="1"/>
        <pt x="393" y="222" on="1"/>
        <pt x="289" y="532" on="1"/>
      </contour>
      <contour>
        <pt x="221" y="770" on="1"/>
        <pt x="189" y="770" on="0"/>
        <pt x="164" y="719" on="1"/>
        <pt x="132" y="738" on="1"/>
        <pt x="144" y="789" on="0"/>
        <pt x="190" y="842" on="0"/>
        <pt x="242" y="842" on="0"/>
        <pt x="276" y="825" on="1"/>
        <pt x="322" y="802" on="0"/>
        <pt x="349" y="790" on="0"/>
        <pt x="375" y="790" on="0"/>
        <pt x="403" y="815" on="0"/>
        <pt x="413" y="842" on="1"/>
        <pt x="448" y="819" on="1"/>
        <pt x="437" y="771" on="0"/>
        <pt x="388" y="719" on="0"/>
        <pt x="347" y="719" on="0"/>
        <pt x="313" y="731" on="0"/>
        <pt x="253" y="762" on="0"/>
        <pt x="232" y="770" on="0"/>
      </contour>
    </TTGlyph>
    <TTGlyph name="B" xMin="101" yMin="0" xMax="553" yMax="629">
      <contour>
        <pt x="101" y="629" on="1"/>
        <pt x="336" y="629" on="1"/>
        <pt x="435" y="629" on="0"/>
        <pt x="542" y="535" on="0"/>
        <pt x="542" y="464" on="1"/>
        <pt x="542" y="410" on="0"/>
        <pt x="483" y="330" on="0"/>
        <pt x="423" y="316" on="1"/>
        <pt x="482" y="306" on="0"/>
        <pt x="553" y="224" on="0"/>
        <pt x="553" y="172" on="1"/>
        <pt x="553" y="56" on="0"/>
        <pt x="440" y="15" on="1"/>
        <pt x="398" y="0" on="0"/>
        <pt x="337" y="0" on="1"/>
        <pt x="101" y="0" on="1"/>
      </contour>
      <contour>
        <pt x="335" y="69" on="1"/>
        <pt x="407" y="69" on="0"/>
        <pt x="469" y="127" on="0"/>
        <pt x="469" y="175" on="1"/>
        <pt x="469" y="223" on="0"/>
        <pt x="401" y="280" on="0"/>
        <pt x="335" y="280" on="1"/>
        <pt x="180" y="280" on="1"/>
        <pt x="180" y="69" on="1"/>
      </contour>
      <contour>
        <pt x="180" y="348" on="1"/>
        <pt x="334" y="348" on="1"/>
        <pt x="392" y="348" on="0"/>
        <pt x="461" y="405" on="0"/>
        <pt x="461" y="505" on="0"/>
        <pt x="394" y="561" on="0"/>
        <pt x="334" y="561" on="1"/>
        <pt x="180" y="561" on="1"/>
      </contour>
    </TTGlyph>
    <TTGlyph name="C" xMin="51" yMin="-11" xMax="566" yMax="640">
      <contour>
        <pt x="319" y="640" on="1"/>
        <pt x="420" y="640" on="0"/>
        <pt x="543" y="539" on="0"/>
        <pt x="566" y="458" on="1"/>
        <pt x="481" y="441" on="1"/>
        <pt x="461" y="500" on="0"/>
        <pt x="376" y="569" on="0"/>
        <pt x="319" y="569" on="1"/>
        <pt x="240" y="569" on="0"/>
        <pt x="136" y="437" on="0"/>
        <pt x="136" y="202" on="0"/>
        <pt x="229" y="60" on="0"/>
        <pt x="319" y="60" on="1"/>
        <pt x="394" y="60" on="0"/>
        <pt x="481" y="139" on="0"/>
        <pt x="481" y="204" on="1"/>
        <pt x="566" y="204" on="1"/>
        <pt x="566" y="105" on="0"/>
        <pt x="431" y="-11" on="0"/>
        <pt x="196" y="-11" on="0"/>
        <pt x="51" y="169" on="0"/>
        <pt x="51" y="471" on="0"/>
        <pt x="201" y="640" on="0"/>
      </contour>
    </TTGlyph>
    <TTGlyph name="D" xMin="100" yMin="0" xMax="598" yMax="629">
      <contour>
        <pt x="285" y="629" on="1"/>
        <pt x="427" y="629" on="0"/>
        <pt x="598" y="458" on="0"/>
        <pt x="598" y="171" on="0"/>
        <pt x="427" y="0" on="0"/>
        <pt x="285" y="0" on="1"/>
        <pt x="100" y="0" on="1"/>
        <pt x="100" y="629" on="1"/>
      </contour>
      <contour>
        <pt x="179" y="69" on="1"/>
        <pt x="285" y="69" on="1"/>
        <pt x="390" y="69" on="0"/>
        <pt x="514" y="208" on="0"/>
        <pt x="514" y="315" on="1"/>
        <pt x="514" y="422" on="0"/>
        <pt x="389" y="559" on="0"/>
        <pt x="285" y="559" on="1"/>
        <pt x="179" y="559" on="1"/>
      </contour>
    </TTGlyph>
    <TTGlyph name="E" xMin="100" yMin="0" xMax="487" yMax="629">
      <contour>
        <pt x="100" y="629" on="1"/>
        <pt x="487" y="629" on="1"/>
        <pt x="487" y="561" on="1"/>
        <pt x="179" y="561" on="1"/>
        <pt x="179" y="350" on="1"/>
        <pt x="469" y="350" on="1"/>
        <pt x="469" y="283" on="1"/>
        <pt x="179" y="283" on="1"/>
        <pt x="179" y="69" on="1"/>
        <pt x="487" y="69" on="1"/>
        <pt x="487" y="0" on="1"/>
        <pt x="100" y="0" on="1"/>
      </contour>
    </TTGlyph>
    <TTGlyph name="Eacute" xMin="100" yMin="0" xMax="487" yMax="860">
      <contour>
        <pt x="100" y="0" on="1"/>
        <pt x="487" y="0" on="1"/>
        <pt x="487" y="69" on="1"/>
        <pt x="179" y="69" on="1"/>
        <pt x="179" y="283" on="1"/>
        <pt x="469" y="283" on="1"/>
        <pt x="469" y="350" on="1"/>
        <pt x="179" y="350" on="1"/>
        <pt x="179" y="561" on="1"/>
        <pt x="487" y="561" on="1"/>
        <pt x="487" y="629" on="1"/>
        <pt x="100" y="629" on="1"/>
      </contour>
      <contour>
        <pt x="427" y="790" on="1"/>
        <pt x="183" y="677" on="1"/>
        <pt x="160" y="727" on="1"/>
        <pt x="395" y="860" on="1"/>
      </contour>
    </TTGlyph>
    <TTGlyph name="Ecircumflex" xMin="105" yMin="0" xMax="492" yMax="872">
      <contour>
        <pt x="105" y="629" on="1"/>
        <pt x="492" y="629" on="1"/>
        <pt x="492" y="561" on="1"/>
        <pt x="184" y="561" on="1"/>
        <pt x="184" y="350" on="1"/>
        <pt x="474" y="350" on="1"/>
        <pt x="474" y="283" on="1"/>
        <pt x="184" y="283" on="1"/>
        <pt x="184" y="69" on="1"/>
        <pt x="492" y="69" on="1"/>
        <pt x="492" y="0" on="1"/>
        <pt x="105" y="0" on="1"/>
      </contour>
      <contour>
        <pt x="479" y="716" on="1"/>
        <pt x="429" y="677" on="1"/>
        <pt x="300" y="785" on="1"/>
        <pt x="170" y="677" on="1"/>
        <pt x="120" y="716" on="1"/>
        <pt x="300" y="872" on="1"/>
      </contour>
    </TTGlyph>
    <TTGlyph name="Edieresis" xMin="100" yMin="0" xMax="487" yMax="835">
      <contour>
        <pt x="100" y="629" on="1"/>
        <pt x="487" y="629" on="1"/>
        <pt x="487" y="561" on="1"/>
        <pt x="179" y="561" on="1"/>
        <pt x="179" y="350" on="1"/>
        <pt x="469" y="350" on="1"/>
        <pt x="469" y="283" on="1"/>
        <pt x="179" y="283" on="1"/>
        <pt x="179" y="69" on="1"/>
        <pt x="487" y="69" on="1"/>
        <pt x="487" y="0" on="1"/>
        <pt x="100" y="0" on="1"/>
      </contour>
      <contour>
        <pt x="187" y="735" on="0"/>
        <pt x="158" y="764" on="0"/>
        <pt x="158" y="806" on="0"/>
        <pt x="187" y="835" on="0"/>
        <pt x="210" y="835" on="1"/>
        <pt x="233" y="835" on="0"/>
        <pt x="264" y="806" on="0"/>
        <pt x="264" y="764" on="0"/>
        <pt x="233" y="735" on="0"/>
        <pt x="210" y="735" on="1"/>
      </contour>
      <contour>
        <pt x="356" y="735" on="0"/>
        <pt x="326" y="764" on="0"/>
        <pt x="326" y="806" on="0"/>
        <pt x="356" y="835" on="0"/>
        <pt x="401" y="835" on="0"/>
        <pt x="432" y="806" on="0"/>
        <pt x="432" y="764" on="0"/>
        <pt x="401" y="735" on="0"/>
      </contour>
    </TTGlyph>
    <TTGlyph name="Egrave" xMin="100" yMin="0" xMax="487" yMax="860">
      <contour>
        <pt x="100" y="629" on="1"/>
        <pt x="487" y="629" on="1"/>
        <pt x="487" y="561" on="1"/>
        <pt x="179" y="561" on="1"/>
        <pt x="179" y="350" on="1"/>
        <pt x="469" y="350" on="1"/>
        <pt x="469" y="283" on="1"/>
        <pt x="179" y="283" on="1"/>
        <pt x="179" y="69" on="1"/>
        <pt x="487" y="69" on="1"/>
        <pt x="487" y="0" on="1"/>
        <pt x="100" y="0" on="1"/>
      </contour>
      <contour>
        <pt x="194" y="860" on="1"/>
        <pt x="429" y="727" on="1"/>
        <pt x="406" y="677" on="1"/>
        <pt x="161" y="790" on="1"/>
      </contour>
    </TTGlyph>
    <TTGlyph name="F" xMin="101" yMin="0" xMax="483" yMax="629">
      <contour>
        <pt x="101" y="629" on="1"/>
        <pt x="483" y="629" on="1"/>
        <pt x="483" y="561" on="1"/>
        <pt x="180" y="561" on="1"/>
        <pt x="180" y="352" on="1"/>
        <pt x="462" y="352" on="1"/>
        <pt x="462" y="284" on="1"/>
        <pt x="180" y="284" on="1"/>
        <pt x="180" y="0" on="1"/>
        <pt x="101" y="0" on="1"/>
      </contour>
    </TTGlyph>
    <TTGlyph name="G" xMin="51" yMin="-11" xMax="571" yMax="639">
      <contour>
        <pt x="490" y="108" on="1"/>
        <pt x="448" y="-11" on="0"/>
        <pt x="206" y="-11" on="0"/>
        <pt x="51" y="165" on="0"/>
        <pt x="51" y="463" on="0"/>
        <pt x="220" y="639" on="0"/>
        <pt x="346" y="639" on="1"/>
        <pt x="420" y="639" on="0"/>
        <pt x="531" y="579" on="0"/>
        <pt x="571" y="513" on="1"/>
        <pt x="495" y="487" on="1"/>
        <pt x="430" y="568" on="0"/>
        <pt x="256" y="568" on="0"/>
        <pt x="135" y="426" on="0"/>
        <pt x="135" y="199" on="0"/>
        <pt x="239" y="61" on="0"/>
        <pt x="327" y="61" on="1"/>
        <pt x="399" y="61" on="0"/>
        <pt x="487" y="157" on="0"/>
        <pt x="487" y="251" on="1"/>
        <pt x="487" y="253" on="1"/>
        <pt x="329" y="259" on="1"/>
        <pt x="329" y="311" on="1"/>
        <pt x="564" y="311" on="1"/>
        <pt x="564" y="0" on="1"/>
        <pt x="500" y="0" on="1"/>
      </contour>
    </TTGlyph>
    <TTGlyph name="H" xMin="101" yMin="0" xMax="568" yMax="629">
      <contour>
        <pt x="180" y="629" on="1"/>
        <pt x="180" y="352" on="1"/>
        <pt x="489" y="352" on="1"/>
        <pt x="489" y="629" on="1"/>
        <pt x="568" y="629" on="1"/>
        <pt x="568" y="0" on="1"/>
        <pt x="489" y="0" on="1"/>
        <pt x="489" y="284" on="1"/>
        <pt x="180" y="284" on="1"/>
        <pt x="180" y="0" on="1"/>
        <pt x="101" y="0" on="1"/>
        <pt x="101" y="629" on="1"/>
      </contour>
    </TTGlyph>
    <TTGlyph name="I" xMin="101" yMin="0" xMax="180" yMax="629">
      <contour>
        <pt x="101" y="629" on="1"/>
        <pt x="180" y="629" on="1"/>
        <pt x="180" y="0" on="1"/>
        <pt x="101" y="0" on="1"/>
      </contour>
    </TTGlyph>
    <TTGlyph name="Iacute" xMin="6" yMin="0" xMax="273" yMax="860">
      <contour>
        <pt x="101" y="0" on="1"/>
        <pt x="180" y="0" on="1"/>
        <pt x="180" y="629" on="1"/>
        <pt x="101" y="629" on="1"/>
      </contour>
      <contour>
        <pt x="273" y="790" on="1"/>
        <pt x="29" y="677" on="1"/>
        <pt x="6" y="727" on="1"/>
        <pt x="241" y="860" on="1"/>
      </contour>
    </TTGlyph>
    <TTGlyph name="Icircumflex" xMin="-39" yMin="0" xMax="320" yMax="872">
      <contour>
        <pt x="101" y="629" on="1"/>
        <pt x="180" y="629" on="1"/>
        <pt x="180" y="0" on="1"/>
        <pt x="101" y="0" on="1"/>
      </contour>
      <contour>
        <pt x="320" y="716" on="1"/>
        <pt x="270" y="677" on="1"/>
        <pt x="141" y="785" on="1"/>
        <pt x="11" y="677" on="1"/>
        <pt x="-39" y="716" on="1"/>
        <pt x="141" y="872" on="1"/>
      </contour>
    </TTGlyph>
    <TTGlyph name="Idieresis" xMin="4" yMin="0" xMax="278" yMax="835">
      <contour>
        <pt x="101" y="629" on="1"/>
        <pt x="180" y="629" on="1"/>
        <pt x="180" y="0" on="1"/>
        <pt x="101" y="0" on="1"/>
      </contour>
      <contour>
        <pt x="33" y="735" on="0"/>
        <pt x="4" y="764" on="0"/>
        <pt x="4" y="806" on="0"/>
        <pt x="33" y="835" on="0"/>
        <pt x="56" y="835" on="1"/>
        <pt x="79" y="835" on="0"/>
        <pt x="110" y="806" on="0"/>
        <pt x="110" y="764" on="0"/>
        <pt x="79" y="735" on="0"/>
        <pt x="56" y="735" on="1"/>
      </contour>
      <contour>
        <pt x="202" y="735" on="0"/>
        <pt x="172" y="764" on="0"/>
        <pt x="172" y="806" on="0"/>
        <pt x="202" y="835" on="0"/>
        <pt x="247" y="835" on="0"/>
        <pt x="278" y="806" on="0"/>
        <pt x="278" y="764" on="0"/>
        <pt x="247" y="735" on="0"/>
      </contour>
    </TTGlyph>
    <TTGlyph name="Igrave" xMin="7" yMin="0" xMax="275" yMax="860">
      <contour>
        <pt x="101" y="629" on="1"/>
        <pt x="180" y="629" on="1"/>
        <pt x="180" y="0" on="1"/>
        <pt x="101" y="0" on="1"/>
      </contour>
      <contour>
        <pt x="40" y="860" on="1"/>
        <pt x="275" y="727" on="1"/>
        <pt x="252" y="677" on="1"/>
        <pt x="7" y="790" on="1"/>
      </contour>
    </TTGlyph>
    <TTGlyph name="J" xMin="8" yMin="-11" xMax="324" yMax="629">
      <contour>
        <pt x="324" y="79" on="0"/>
        <pt x="231" y="-11" on="0"/>
        <pt x="87" y="-11" on="0"/>
        <pt x="8" y="31" on="1"/>
        <pt x="8" y="113" on="1"/>
        <pt x="78" y="65" on="0"/>
        <pt x="201" y="65" on="0"/>
        <pt x="245" y="125" on="0"/>
        <pt x="245" y="182" on="1"/>
        <pt x="245" y="629" on="1"/>
        <pt x="324" y="629" on="1"/>
        <pt x="324" y="182" on="1"/>
      </contour>
    </TTGlyph>
    <TTGlyph name="K" xMin="101" yMin="0" xMax="588" yMax="629">
      <contour>
        <pt x="181" y="629" on="1"/>
        <pt x="181" y="338" on="1"/>
        <pt x="462" y="629" on="1"/>
        <pt x="571" y="629" on="1"/>
        <pt x="296" y="346" on="1"/>
        <pt x="588" y="0" on="1"/>
        <pt x="486" y="0" on="1"/>
        <pt x="243" y="291" on="1"/>
        <pt x="181" y="227" on="1"/>
        <pt x="181" y="0" on="1"/>
        <pt x="101" y="0" on="1"/>
        <pt x="101" y="629" on="1"/>
      </contour>
    </TTGlyph>
    <TTGlyph name="L" xMin="101" yMin="0" xMax="460" yMax="629">
      <contour>
        <pt x="180" y="69" on="1"/>
        <pt x="460" y="69" on="1"/>
        <pt x="460" y="0" on="1"/>
        <pt x="101" y="0" on="1"/>
        <pt x="101" y="629" on="1"/>
        <pt x="180" y="629" on="1"/>
      </contour>
    </TTGlyph>
    <TTGlyph name="M" xMin="101" yMin="0" xMax="747" yMax="629">
      <contour>
        <pt x="214" y="629" on="1"/>
        <pt x="426" y="203" on="1"/>
        <pt x="636" y="629" on="1"/>
        <pt x="747" y="629" on="1"/>
        <pt x="747" y="0" on="1"/>
        <pt x="668" y="0" on="1"/>
        <pt x="668" y="517" on="1"/>
        <pt x="452" y="79" on="1"/>
        <pt x="399" y="79" on="1"/>
        <pt x="180" y="524" on="1"/>
        <pt x="180" y="0" on="1"/>
        <pt x="101" y="0" on="1"/>
        <pt x="101" y="629" on="1"/>
      </contour>
    </TTGlyph>
    <TTGlyph name="N" xMin="99" yMin="0" xMax="584" yMax="629">
      <contour>
        <pt x="193" y="629" on="1"/>
        <pt x="505" y="124" on="1"/>
        <pt x="505" y="629" on="1"/>
        <pt x="584" y="629" on="1"/>
        <pt x="584" y="0" on="1"/>
        <pt x="496" y="0" on="1"/>
        <pt x="179" y="512" on="1"/>
        <pt x="179" y="0" on="1"/>
        <pt x="99" y="0" on="1"/>
        <pt x="99" y="629" on="1"/>
      </contour>
    </TTGlyph>
    <TTGlyph name="Ntilde" xMin="99" yMin="0" xMax="584" yMax="842">
      <contour>
        <pt x="99" y="629" on="1"/>
        <pt x="99" y="0" on="1"/>
        <pt x="179" y="0" on="1"/>
        <pt x="179" y="512" on="1"/>
        <pt x="496" y="0" on="1"/>
        <pt x="584" y="0" on="1"/>
        <pt x="584" y="629" on="1"/>
        <pt x="505" y="629" on="1"/>
        <pt x="505" y="124" on="1"/>
        <pt x="193" y="629" on="1"/>
      </contour>
      <contour>
        <pt x="274" y="770" on="1"/>
        <pt x="242" y="770" on="0"/>
        <pt x="217" y="719" on="1"/>
        <pt x="185" y="738" on="1"/>
        <pt x="197" y="789" on="0"/>
        <pt x="243" y="842" on="0"/>
        <pt x="295" y="842" on="0"/>
        <pt x="328" y="825" on="1"/>
        <pt x="375" y="802" on="0"/>
        <pt x="402" y="790" on="0"/>
        <pt x="428" y="790" on="0"/>
        <pt x="456" y="815" on="0"/>
        <pt x="466" y="842" on="1"/>
        <pt x="501" y="819" on="1"/>
        <pt x="490" y="771" on="0"/>
        <pt x="441" y="719" on="0"/>
        <pt x="400" y="719" on="0"/>
        <pt x="366" y="731" on="0"/>
        <pt x="306" y="762" on="0"/>
        <pt x="285" y="770" on="0"/>
      </contour>
    </TTGlyph>
    <TTGlyph name="O" xMin="51" yMin="-11" xMax="596" yMax="640">
      <contour>
        <pt x="323" y="640" on="1"/>
        <pt x="445" y="640" on="0"/>
        <pt x="596" y="473" on="0"/>
        <pt x="596" y="154" on="0"/>
        <pt x="446" y="-11" on="0"/>
        <pt x="323" y="-11" on="1"/>
        <pt x="200" y="-11" on="0"/>
        <pt x="51" y="156" on="0"/>
        <pt x="51" y="314" on="1"/>
        <pt x="51" y="473" on="0"/>
        <pt x="200" y="640" on="0"/>
      </contour>
      <contour>
        <pt x="323" y="569" on="1"/>
        <pt x="235" y="569" on="0"/>
        <pt x="133" y="437" on="0"/>
        <pt x="133" y="189" on="0"/>
        <pt x="235" y="61" on="0"/>
        <pt x="323" y="61" on="1"/>
        <pt x="411" y="61" on="0"/>
        <pt x="514" y="189" on="0"/>
        <pt x="514" y="437" on="0"/>
        <pt x="411" y="569" on="0"/>
      </contour>
    </TTGlyph>
    <TTGlyph name="Oacute" xMin="51" yMin="-11" xMax="596" yMax="860">
      <contour>
        <pt x="323" y="640" on="1"/>
        <pt x="200" y="640" on="0"/>
        <pt x="51" y="473" on="0"/>
        <pt x="51" y="314" on="1"/>
        <pt x="51" y="156" on="0"/>
        <pt x="200" y="-11" on="0"/>
        <pt x="323" y="-11" on="1"/>
        <pt x="446" y="-11" on="0"/>
        <pt x="596" y="154" on="0"/>
        <pt x="596" y="473" on="0"/>
        <pt x="445" y="640" on="0"/>
      </contour>
      <contour>
        <pt x="323" y="569" on="1"/>
        <pt x="411" y="569" on="0"/>
        <pt x="514" y="437" on="0"/>
        <pt x="514" y="189" on="0"/>
        <pt x="411" y="61" on="0"/>
        <pt x="323" y="61" on="1"/>
        <pt x="235" y="61" on="0"/>
        <pt x="133" y="189" on="0"/>
        <pt x="133" y="437" on="0"/>
        <pt x="235" y="569" on="0"/>
      </contour>
      <contour>
        <pt x="456" y="790" on="1"/>
        <pt x="212" y="677" on="1"/>
        <pt x="189" y="727" on="1"/>
        <pt x="424" y="860" on="1"/>
      </contour>
    </TTGlyph>
    <TTGlyph name="Ocircumflex" xMin="51" yMin="-11" xMax="596" yMax="872">
      <contour>
        <pt x="323" y="640" on="1"/>
        <pt x="445" y="640" on="0"/>
        <pt x="596" y="473" on="0"/>
        <pt x="596" y="154" on="0"/>
        <pt x="446" y="-11" on="0"/>
        <pt x="323" y="-11" on="1"/>
        <pt x="200" y="-11" on="0"/>
        <pt x="51" y="156" on="0"/>
        <pt x="51" y="314" on="1"/>
        <pt x="51" y="473" on="0"/>
        <pt x="200" y="640" on="0"/>
      </contour>
      <contour>
        <pt x="323" y="569" on="1"/>
        <pt x="235" y="569" on="0"/>
        <pt x="133" y="437" on="0"/>
        <pt x="133" y="189" on="0"/>
        <pt x="235" y="61" on="0"/>
        <pt x="323" y="61" on="1"/>
        <pt x="411" y="61" on="0"/>
        <pt x="514" y="189" on="0"/>
        <pt x="514" y="437" on="0"/>
        <pt x="411" y="569" on="0"/>
      </contour>
      <contour>
        <pt x="502" y="716" on="1"/>
        <pt x="452" y="677" on="1"/>
        <pt x="323" y="785" on="1"/>
        <pt x="193" y="677" on="1"/>
        <pt x="143" y="716" on="1"/>
        <pt x="323" y="872" on="1"/>
      </contour>
    </TTGlyph>
    <TTGlyph name="Odieresis" xMin="51" yMin="-11" xMax="596" yMax="835">
      <contour>
        <pt x="323" y="640" on="1"/>
        <pt x="445" y="640" on="0"/>
        <pt x="596" y="473" on="0"/>
        <pt x="596" y="154" on="0"/>
        <pt x="446" y="-11" on="0"/>
        <pt x="323" y="-11" on="1"/>
        <pt x="200" y="-11" on="0"/>
        <pt x="51" y="156" on="0"/>
        <pt x="51" y="314" on="1"/>
        <pt x="51" y="473" on="0"/>
        <pt x="200" y="640" on="0"/>
      </contour>
      <contour>
        <pt x="323" y="569" on="1"/>
        <pt x="235" y="569" on="0"/>
        <pt x="133" y="437" on="0"/>
        <pt x="133" y="189" on="0"/>
        <pt x="235" y="61" on="0"/>
        <pt x="323" y="61" on="1"/>
        <pt x="411" y="61" on="0"/>
        <pt x="514" y="189" on="0"/>
        <pt x="514" y="437" on="0"/>
        <pt x="411" y="569" on="0"/>
      </contour>
      <contour>
        <pt x="215" y="735" on="0"/>
        <pt x="186" y="764" on="0"/>
        <pt x="186" y="806" on="0"/>
        <pt x="215" y="835" on="0"/>
        <pt x="238" y="835" on="1"/>
        <pt x="261" y="835" on="0"/>
        <pt x="292" y="806" on="0"/>
        <pt x="292" y="764" on="0"/>
        <pt x="261" y="735" on="0"/>
        <pt x="238" y="735" on="1"/>
      </contour>
      <contour>
        <pt x="384" y="735" on="0"/>
        <pt x="354" y="764" on="0"/>
        <pt x="354" y="806" on="0"/>
        <pt x="384" y="835" on="0"/>
        <pt x="429" y="835" on="0"/>
        <pt x="460" y="806" on="0"/>
        <pt x="460" y="764" on="0"/>
        <pt x="429" y="735" on="0"/>
      </contour>
    </TTGlyph>
    <TTGlyph name="Ograve" xMin="51" yMin="-11" xMax="596" yMax="860">
      <contour>
        <pt x="323" y="640" on="1"/>
        <pt x="445" y="640" on="0"/>
        <pt x="596" y="473" on="0"/>
        <pt x="596" y="154" on="0"/>
        <pt x="446" y="-11" on="0"/>
        <pt x="323" y="-11" on="1"/>
        <pt x="200" y="-11" on="0"/>
        <pt x="51" y="156" on="0"/>
        <pt x="51" y="314" on="1"/>
        <pt x="51" y="473" on="0"/>
        <pt x="200" y="640" on="0"/>
      </contour>
      <contour>
        <pt x="323" y="569" on="1"/>
        <pt x="235" y="569" on="0"/>
        <pt x="133" y="437" on="0"/>
        <pt x="133" y="189" on="0"/>
        <pt x="235" y="61" on="0"/>
        <pt x="323" y="61" on="1"/>
        <pt x="411" y="61" on="0"/>
        <pt x="514" y="189" on="0"/>
        <pt x="514" y="437" on="0"/>
        <pt x="411" y="569" on="0"/>
      </contour>
      <contour>
        <pt x="223" y="860" on="1"/>
        <pt x="458" y="727" on="1"/>
        <pt x="435" y="677" on="1"/>
        <pt x="190" y="790" on="1"/>
      </contour>
    </TTGlyph>
    <TTGlyph name="Otilde" xMin="51" yMin="-11" xMax="596" yMax="842">
      <contour>
        <pt x="323" y="640" on="1"/>
        <pt x="200" y="640" on="0"/>
        <pt x="51" y="473" on="0"/>
        <pt x="51" y="314" on="1"/>
        <pt x="51" y="156" on="0"/>
        <pt x="200" y="-11" on="0"/>
        <pt x="323" y="-11" on="1"/>
        <pt x="446" y="-11" on="0"/>
        <pt x="596" y="154" on="0"/>
        <pt x="596" y="473" on="0"/>
        <pt x="445" y="640" on="0"/>
      </contour>
      <contour>
        <pt x="323" y="569" on="1"/>
        <pt x="411" y="569" on="0"/>
        <pt x="514" y="437" on="0"/>
        <pt x="514" y="189" on="0"/>
        <pt x="411" y="61" on="0"/>
        <pt x="323" y="61" on="1"/>
        <pt x="235" y="61" on="0"/>
        <pt x="133" y="189" on="0"/>
        <pt x="133" y="437" on="0"/>
        <pt x="235" y="569" on="0"/>
      </contour>
      <contour>
        <pt x="254" y="770" on="1"/>
        <pt x="222" y="770" on="0"/>
        <pt x="197" y="719" on="1"/>
        <pt x="165" y="738" on="1"/>
        <pt x="177" y="789" on="0"/>
        <pt x="223" y="842" on="0"/>
        <pt x="275" y="842" on="0"/>
        <pt x="308" y="825" on="1"/>
        <pt x="355" y="802" on="0"/>
        <pt x="382" y="790" on="0"/>
        <pt x="408" y="790" on="0"/>
        <pt x="436" y="815" on="0"/>
        <pt x="446" y="842" on="1"/>
        <pt x="481" y="819" on="1"/>
        <pt x="470" y="771" on="0"/>
        <pt x="421" y="719" on="0"/>
        <pt x="380" y="719" on="0"/>
        <pt x="346" y="731" on="0"/>
        <pt x="286" y="762" on="0"/>
        <pt x="265" y="770" on="0"/>
      </contour>
    </TTGlyph>
    <TTGlyph name="P" xMin="99" yMin="0" xMax="515" yMax="629">
      <contour>
        <pt x="406" y="629" on="0"/>
        <pt x="515" y="524" on="0"/>
        <pt x="515" y="346" on="0"/>
        <pt x="406" y="243" on="0"/>
        <pt x="302" y="243" on="1"/>
        <pt x="178" y="243" on="1"/>
        <pt x="178" y="0" on="1"/>
        <pt x="99" y="0" on="1"/>
        <pt x="99" y="629" on="1"/>
        <pt x="302" y="629" on="1"/>
      </contour>
      <contour>
        <pt x="302" y="311" on="1"/>
        <pt x="367" y="311" on="0"/>
        <pt x="434" y="377" on="0"/>
        <pt x="434" y="492" on="0"/>
        <pt x="367" y="561" on="0"/>
        <pt x="302" y="561" on="1"/>
        <pt x="178" y="561" on="1"/>
        <pt x="178" y="311" on="1"/>
      </contour>
    </TTGlyph>
    <TTGlyph name="Q" xMin="51" yMin="-167" xMax="596" yMax="640">
      <contour>
        <pt x="596" y="-148" on="1"/>
        <pt x="556" y="-167" on="0"/>
        <pt x="512" y="-167" on="1"/>
        <pt x="427" y="-167" on="0"/>
        <pt x="366" y="-78" on="1"/>
        <pt x="319" y="-11" on="1"/>
        <pt x="198" y="-9" on="0"/>
        <pt x="51" y="157" on="0"/>
        <pt x="51" y="473" on="0"/>
        <pt x="200" y="640" on="0"/>
        <pt x="323" y="640" on="1"/>
        <pt x="445" y="640" on="0"/>
        <pt x="596" y="473" on="0"/>
        <pt x="596" y="314" on="1"/>
        <pt x="596" y="182" on="0"/>
        <pt x="490" y="21" on="0"/>
        <pt x="399" y="-2" on="1"/>
        <pt x="430" y="-46" on="1"/>
        <pt x="459" y="-85" on="0"/>
        <pt x="499" y="-87" on="1"/>
        <pt x="542" y="-87" on="0"/>
        <pt x="596" y="-62" on="1"/>
      </contour>
      <contour>
        <pt x="323" y="569" on="1"/>
        <pt x="235" y="569" on="0"/>
        <pt x="133" y="437" on="0"/>
        <pt x="133" y="189" on="0"/>
        <pt x="235" y="61" on="0"/>
        <pt x="323" y="61" on="1"/>
        <pt x="411" y="61" on="0"/>
        <pt x="514" y="189" on="0"/>
        <pt x="514" y="437" on="0"/>
        <pt x="411" y="569" on="0"/>
      </contour>
    </TTGlyph>
    <TTGlyph name="R" xMin="101" yMin="0" xMax="555" yMax="629">
      <contour>
        <pt x="539" y="371" on="0"/>
        <pt x="456" y="275" on="0"/>
        <pt x="375" y="261" on="1"/>
        <pt x="555" y="0" on="1"/>
        <pt x="453" y="0" on="1"/>
        <pt x="290" y="257" on="1"/>
        <pt x="180" y="257" on="1"/>
        <pt x="180" y="0" on="1"/>
        <pt x="101" y="0" on="1"/>
        <pt x="101" y="629" on="1"/>
        <pt x="320" y="629" on="1"/>
        <pt x="426" y="629" on="0"/>
        <pt x="539" y="527" on="0"/>
      </contour>
      <contour>
        <pt x="314" y="312" on="1"/>
        <pt x="385" y="312" on="0"/>
        <pt x="458" y="381" on="0"/>
        <pt x="458" y="494" on="0"/>
        <pt x="387" y="561" on="0"/>
        <pt x="320" y="561" on="1"/>
        <pt x="180" y="561" on="1"/>
        <pt x="180" y="312" on="1"/>
      </contour>
    </TTGlyph>
    <TTGlyph name="S" xMin="69" yMin="-11" xMax="536" yMax="640">
      <contour>
        <pt x="436" y="476" on="1"/>
        <pt x="419" y="568" on="0"/>
        <pt x="301" y="568" on="1"/>
        <pt x="238" y="568" on="0"/>
        <pt x="170" y="513" on="0"/>
        <pt x="170" y="436" on="0"/>
        <pt x="212" y="396" on="0"/>
        <pt x="259" y="381" on="1"/>
        <pt x="390" y="336" on="1"/>
        <pt x="457" y="313" on="0"/>
        <pt x="536" y="233" on="0"/>
        <pt x="536" y="88" on="0"/>
        <pt x="412" y="-11" on="0"/>
        <pt x="204" y="-11" on="0"/>
        <pt x="71" y="94" on="0"/>
        <pt x="69" y="189" on="1"/>
        <pt x="146" y="189" on="1"/>
        <pt x="146" y="127" on="0"/>
        <pt x="233" y="61" on="0"/>
        <pt x="370" y="61" on="0"/>
        <pt x="450" y="122" on="0"/>
        <pt x="450" y="205" on="0"/>
        <pt x="401" y="253" on="0"/>
        <pt x="353" y="269" on="1"/>
        <pt x="242" y="310" on="1"/>
        <pt x="164" y="336" on="0"/>
        <pt x="84" y="408" on="0"/>
        <pt x="84" y="547" on="0"/>
        <pt x="196" y="640" on="0"/>
        <pt x="398" y="640" on="0"/>
        <pt x="505" y="551" on="0"/>
        <pt x="513" y="476" on="1"/>
      </contour>
    </TTGlyph>
    <TTGlyph name="T" xMin="6" yMin="0" xMax="495" yMax="629">
      <contour>
        <pt x="6" y="629" on="1"/>
        <pt x="495" y="629" on="1"/>
        <pt x="495" y="561" on="1"/>
        <pt x="290" y="561" on="1"/>
        <pt x="290" y="0" on="1"/>
        <pt x="211" y="0" on="1"/>
        <pt x="211" y="561" on="1"/>
        <pt x="6" y="561" on="1"/>
      </contour>
    </TTGlyph>
    <TTGlyph name="U" xMin="87" yMin="-11" xMax="565" yMax="629">
      <contour>
        <pt x="166" y="629" on="1"/>
        <pt x="166" y="227" on="1"/>
        <pt x="166" y="139" on="0"/>
        <pt x="254" y="61" on="0"/>
        <pt x="326" y="61" on="1"/>
        <pt x="398" y="61" on="0"/>
        <pt x="486" y="139" on="0"/>
        <pt x="486" y="227" on="1"/>
        <pt x="486" y="629" on="1"/>
        <pt x="565" y="629" on="1"/>
        <pt x="565" y="227" on="1"/>
        <pt x="565" y="109" on="0"/>
        <pt x="435" y="-11" on="0"/>
        <pt x="216" y="-11" on="0"/>
        <pt x="87" y="109" on="0"/>
        <pt x="87" y="227" on="1"/>
        <pt x="87" y="629" on="1"/>
      </contour>
    </TTGlyph>
    <TTGlyph name="Uacute" xMin="87" yMin="-11" xMax="565" yMax="860">
      <contour>
        <pt x="87" y="629" on="1"/>
        <pt x="87" y="227" on="1"/>
        <pt x="87" y="109" on="0"/>
        <pt x="216" y="-11" on="0"/>
        <pt x="435" y="-11" on="0"/>
        <pt x="565" y="109" on="0"/>
        <pt x="565" y="227" on="1"/>
        <pt x="565" y="629" on="1"/>
        <pt x="486" y="629" on="1"/>
        <pt x="486" y="227" on="1"/>
        <pt x="486" y="139" on="0"/>
        <pt x="398" y="61" on="0"/>
        <pt x="326" y="61" on="1"/>
        <pt x="254" y="61" on="0"/>
        <pt x="166" y="139" on="0"/>
        <pt x="166" y="227" on="1"/>
        <pt x="166" y="629" on="1"/>
      </contour>
      <contour>
        <pt x="459" y="790" on="1"/>
        <pt x="215" y="677" on="1"/>
        <pt x="192" y="727" on="1"/>
        <pt x="427" y="860" on="1"/>
      </contour>
    </TTGlyph>
    <TTGlyph name="Ucircumflex" xMin="87" yMin="-11" xMax="565" yMax="872">
      <contour>
        <pt x="166" y="629" on="1"/>
        <pt x="166" y="227" on="1"/>
        <pt x="166" y="139" on="0"/>
        <pt x="254" y="61" on="0"/>
        <pt x="326" y="61" on="1"/>
        <pt x="398" y="61" on="0"/>
        <pt x="486" y="139" on="0"/>
        <pt x="486" y="227" on="1"/>
        <pt x="486" y="629" on="1"/>
        <pt x="565" y="629" on="1"/>
        <pt x="565" y="227" on="1"/>
        <pt x="565" y="109" on="0"/>
        <pt x="435" y="-11" on="0"/>
        <pt x="216" y="-11" on="0"/>
        <pt x="87" y="109" on="0"/>
        <pt x="87" y="227" on="1"/>
        <pt x="87" y="629" on="1"/>
      </contour>
      <contour>
        <pt x="505" y="716" on="1"/>
        <pt x="455" y="677" on="1"/>
        <pt x="326" y="785" on="1"/>
        <pt x="196" y="677" on="1"/>
        <pt x="146" y="716" on="1"/>
        <pt x="326" y="872" on="1"/>
      </contour>
    </TTGlyph>
    <TTGlyph name="Udieresis" xMin="87" yMin="-11" xMax="565" yMax="835">
      <contour>
        <pt x="166" y="629" on="1"/>
        <pt x="166" y="227" on="1"/>
        <pt x="166" y="139" on="0"/>
        <pt x="254" y="61" on="0"/>
        <pt x="326" y="61" on="1"/>
        <pt x="398" y="61" on="0"/>
        <pt x="486" y="139" on="0"/>
        <pt x="486" y="227" on="1"/>
        <pt x="486" y="629" on="1"/>
        <pt x="565" y="629" on="1"/>
        <pt x="565" y="227" on="1"/>
        <pt x="565" y="109" on="0"/>
        <pt x="435" y="-11" on="0"/>
        <pt x="216" y="-11" on="0"/>
        <pt x="87" y="109" on="0"/>
        <pt x="87" y="227" on="1"/>
        <pt x="87" y="629" on="1"/>
      </contour>
      <contour>
        <pt x="218" y="735" on="0"/>
        <pt x="189" y="764" on="0"/>
        <pt x="189" y="806" on="0"/>
        <pt x="218" y="835" on="0"/>
        <pt x="241" y="835" on="1"/>
        <pt x="264" y="835" on="0"/>
        <pt x="295" y="806" on="0"/>
        <pt x="295" y="764" on="0"/>
        <pt x="264" y="735" on="0"/>
        <pt x="241" y="735" on="1"/>
      </contour>
      <contour>
        <pt x="387" y="735" on="0"/>
        <pt x="357" y="764" on="0"/>
        <pt x="357" y="806" on="0"/>
        <pt x="387" y="835" on="0"/>
        <pt x="432" y="835" on="0"/>
        <pt x="463" y="806" on="0"/>
        <pt x="463" y="764" on="0"/>
        <pt x="432" y="735" on="0"/>
      </contour>
    </TTGlyph>
    <TTGlyph name="Ugrave" xMin="87" yMin="-11" xMax="565" yMax="860">
      <contour>
        <pt x="166" y="629" on="1"/>
        <pt x="166" y="227" on="1"/>
        <pt x="166" y="139" on="0"/>
        <pt x="254" y="61" on="0"/>
        <pt x="326" y="61" on="1"/>
        <pt x="398" y="61" on="0"/>
        <pt x="486" y="139" on="0"/>
        <pt x="486" y="227" on="1"/>
        <pt x="486" y="629" on="1"/>
        <pt x="565" y="629" on="1"/>
        <pt x="565" y="227" on="1"/>
        <pt x="565" y="109" on="0"/>
        <pt x="435" y="-11" on="0"/>
        <pt x="216" y="-11" on="0"/>
        <pt x="87" y="109" on="0"/>
        <pt x="87" y="227" on="1"/>
        <pt x="87" y="629" on="1"/>
      </contour>
      <contour>
        <pt x="226" y="860" on="1"/>
        <pt x="461" y="727" on="1"/>
        <pt x="438" y="677" on="1"/>
        <pt x="193" y="790" on="1"/>
      </contour>
    </TTGlyph>
    <TTGlyph name="V" xMin="18" yMin="0" xMax="545" yMax="629">
      <contour>
        <pt x="101" y="629" on="1"/>
        <pt x="281" y="100" on="1"/>
        <pt x="462" y="629" on="1"/>
        <pt x="545" y="629" on="1"/>
        <pt x="322" y="0" on="1"/>
        <pt x="240" y="0" on="1"/>
        <pt x="18" y="629" on="1"/>
      </contour>
    </TTGlyph>
    <TTGlyph name="W" xMin="14" yMin="0" xMax="880" yMax="629">
      <contour>
        <pt x="102" y="629" on="1"/>
        <pt x="255" y="106" on="1"/>
        <pt x="410" y="564" on="1"/>
        <pt x="463" y="564" on="1"/>
        <pt x="617" y="106" on="1"/>
        <pt x="793" y="629" on="1"/>
        <pt x="880" y="629" on="1"/>
        <pt x="658" y="0" on="1"/>
        <pt x="575" y="0" on="1"/>
        <pt x="438" y="403" on="1"/>
        <pt x="296" y="0" on="1"/>
        <pt x="213" y="0" on="1"/>
        <pt x="14" y="629" on="1"/>
      </contour>
    </TTGlyph>
    <TTGlyph name="X" xMin="47" yMin="0" xMax="593" yMax="629">
      <contour>
        <pt x="593" y="0" on="1"/>
        <pt x="495" y="0" on="1"/>
        <pt x="313" y="251" on="1"/>
        <pt x="144" y="0" on="1"/>
        <pt x="48" y="0" on="1"/>
        <pt x="270" y="312" on="1"/>
        <pt x="47" y="629" on="1"/>
        <pt x="142" y="629" on="1"/>
        <pt x="322" y="372" on="1"/>
        <pt x="488" y="629" on="1"/>
        <pt x="583" y="629" on="1"/>
        <pt x="366" y="313" on="1"/>
      </contour>
    </TTGlyph>
    <TTGlyph name="Y" xMin="10" yMin="0" xMax="539" yMax="629">
      <contour>
        <pt x="104" y="629" on="1"/>
        <pt x="273" y="340" on="1"/>
        <pt x="446" y="629" on="1"/>
        <pt x="539" y="629" on="1"/>
        <pt x="313" y="258" on="1"/>
        <pt x="313" y="0" on="1"/>
        <pt x="233" y="0" on="1"/>
        <pt x="233" y="258" on="1"/>
        <pt x="10" y="629" on="1"/>
      </contour>
    </TTGlyph>
    <TTGlyph name="Z" xMin="73" yMin="0" xMax="535" yMax="629">
      <contour>
        <pt x="73" y="71" on="1"/>
        <pt x="436" y="554" on="1"/>
        <pt x="73" y="557" on="1"/>
        <pt x="73" y="629" on="1"/>
        <pt x="535" y="629" on="1"/>
        <pt x="535" y="558" on="1"/>
        <pt x="172" y="75" on="1"/>
        <pt x="535" y="72" on="1"/>
        <pt x="535" y="0" on="1"/>
        <pt x="73" y="0" on="1"/>
      </contour>
    </TTGlyph>
    <TTGlyph name="a" xMin="70" yMin="-11" xMax="475" yMax="490">
      <contour>
        <pt x="397" y="310" on="1"/>
        <pt x="397" y="375" on="0"/>
        <pt x="343" y="431" on="0"/>
        <pt x="240" y="431" on="0"/>
        <pt x="177" y="390" on="0"/>
        <pt x="177" y="346" on="1"/>
        <pt x="90" y="346" on="1"/>
        <pt x="90" y="456" on="0"/>
        <pt x="208" y="482" on="1"/>
        <pt x="244" y="490" on="0"/>
        <pt x="286" y="490" on="1"/>
        <pt x="375" y="490" on="0"/>
        <pt x="475" y="400" on="0"/>
        <pt x="475" y="308" on="1"/>
        <pt x="475" y="0" on="1"/>
        <pt x="407" y="0" on="1"/>
        <pt x="399" y="80" on="1"/>
        <pt x="355" y="-11" on="0"/>
        <pt x="240" y="-11" on="1"/>
        <pt x="163" y="-11" on="0"/>
        <pt x="70" y="75" on="0"/>
        <pt x="70" y="203" on="0"/>
        <pt x="173" y="275" on="0"/>
        <pt x="327" y="275" on="0"/>
        <pt x="397" y="249" on="1"/>
      </contour>
      <contour>
        <pt x="397" y="199" on="1"/>
        <pt x="326" y="219" on="0"/>
        <pt x="220" y="219" on="0"/>
        <pt x="154" y="181" on="0"/>
        <pt x="154" y="140" on="1"/>
        <pt x="154" y="50" on="0"/>
        <pt x="256" y="50" on="1"/>
        <pt x="314" y="50" on="0"/>
        <pt x="397" y="133" on="0"/>
      </contour>
    </TTGlyph>
    <TTGlyph name="aacute" xMin="60" yMin="-11" xMax="465" yMax="731">
      <contour>
        <pt x="387" y="310" on="1"/>
        <pt x="387" y="375" on="0"/>
        <pt x="333" y="431" on="0"/>
        <pt x="230" y="431" on="0"/>
        <pt x="167" y="390" on="0"/>
        <pt x="167" y="346" on="1"/>
        <pt x="80" y="346" on="1"/>
        <pt x="80" y="456" on="0"/>
        <pt x="198" y="482" on="1"/>
        <pt x="234" y="490" on="0"/>
        <pt x="276" y="490" on="1"/>
        <pt x="365" y="490" on="0"/>
        <pt x="465" y="400" on="0"/>
        <pt x="465" y="308" on="1"/>
        <pt x="465" y="0" on="1"/>
        <pt x="397" y="0" on="1"/>
        <pt x="389" y="80" on="1"/>
        <pt x="345" y="-11" on="0"/>
        <pt x="230" y="-11" on="1"/>
        <pt x="153" y="-11" on="0"/>
        <pt x="60" y="75" on="0"/>
        <pt x="60" y="203" on="0"/>
        <pt x="163" y="275" on="0"/>
        <pt x="317" y="275" on="0"/>
        <pt x="387" y="249" on="1"/>
      </contour>
      <contour>
        <pt x="387" y="199" on="1"/>
        <pt x="316" y="219" on="0"/>
        <pt x="210" y="219" on="0"/>
        <pt x="144" y="181" on="0"/>
        <pt x="144" y="140" on="1"/>
        <pt x="144" y="50" on="0"/>
        <pt x="246" y="50" on="1"/>
        <pt x="303" y="50" on="0"/>
        <pt x="385" y="130" on="0"/>
        <pt x="387" y="193" on="1"/>
      </contour>
      <contour>
        <pt x="415" y="661" on="1"/>
        <pt x="171" y="548" on="1"/>
        <pt x="148" y="598" on="1"/>
        <pt x="383" y="731" on="1"/>
      </contour>
    </TTGlyph>
    <TTGlyph name="acircumflex" xMin="60" yMin="-11" xMax="465" yMax="743">
      <contour>
        <pt x="387" y="310" on="1"/>
        <pt x="387" y="375" on="0"/>
        <pt x="333" y="431" on="0"/>
        <pt x="230" y="431" on="0"/>
        <pt x="167" y="390" on="0"/>
        <pt x="167" y="346" on="1"/>
        <pt x="80" y="346" on="1"/>
        <pt x="80" y="456" on="0"/>
        <pt x="198" y="482" on="1"/>
        <pt x="234" y="490" on="0"/>
        <pt x="276" y="490" on="1"/>
        <pt x="365" y="490" on="0"/>
        <pt x="465" y="400" on="0"/>
        <pt x="465" y="308" on="1"/>
        <pt x="465" y="0" on="1"/>
        <pt x="397" y="0" on="1"/>
        <pt x="389" y="80" on="1"/>
        <pt x="345" y="-11" on="0"/>
        <pt x="230" y="-11" on="1"/>
        <pt x="153" y="-11" on="0"/>
        <pt x="60" y="75" on="0"/>
        <pt x="60" y="203" on="0"/>
        <pt x="163" y="275" on="0"/>
        <pt x="317" y="275" on="0"/>
        <pt x="387" y="249" on="1"/>
      </contour>
      <contour>
        <pt x="387" y="199" on="1"/>
        <pt x="316" y="219" on="0"/>
        <pt x="210" y="219" on="0"/>
        <pt x="144" y="181" on="0"/>
        <pt x="144" y="140" on="1"/>
        <pt x="144" y="50" on="0"/>
        <pt x="246" y="50" on="1"/>
        <pt x="304" y="50" on="0"/>
        <pt x="387" y="133" on="0"/>
      </contour>
      <contour>
        <pt x="461" y="587" on="1"/>
        <pt x="411" y="548" on="1"/>
        <pt x="282" y="656" on="1"/>
        <pt x="152" y="548" on="1"/>
        <pt x="102" y="587" on="1"/>
        <pt x="282" y="743" on="1"/>
      </contour>
    </TTGlyph>
    <TTGlyph name="acute" xMin="23" yMin="677" xMax="290" yMax="860">
      <contour>
        <pt x="290" y="790" on="1"/>
        <pt x="46" y="677" on="1"/>
        <pt x="23" y="727" on="1"/>
        <pt x="258" y="860" on="1"/>
      </contour>
    </TTGlyph>
    <TTGlyph name="adieresis" xMin="60" yMin="-11" xMax="465" yMax="705">
      <contour>
        <pt x="387" y="310" on="1"/>
        <pt x="387" y="375" on="0"/>
        <pt x="333" y="431" on="0"/>
        <pt x="230" y="431" on="0"/>
        <pt x="167" y="390" on="0"/>
        <pt x="167" y="346" on="1"/>
        <pt x="80" y="346" on="1"/>
        <pt x="80" y="456" on="0"/>
        <pt x="198" y="482" on="1"/>
        <pt x="234" y="490" on="0"/>
        <pt x="276" y="490" on="1"/>
        <pt x="365" y="490" on="0"/>
        <pt x="465" y="400" on="0"/>
        <pt x="465" y="308" on="1"/>
        <pt x="465" y="0" on="1"/>
        <pt x="397" y="0" on="1"/>
        <pt x="389" y="80" on="1"/>
        <pt x="345" y="-11" on="0"/>
        <pt x="230" y="-11" on="1"/>
        <pt x="153" y="-11" on="0"/>
        <pt x="60" y="75" on="0"/>
        <pt x="60" y="203" on="0"/>
        <pt x="163" y="275" on="0"/>
        <pt x="317" y="275" on="0"/>
        <pt x="387" y="249" on="1"/>
      </contour>
      <contour>
        <pt x="387" y="199" on="1"/>
        <pt x="316" y="219" on="0"/>
        <pt x="210" y="219" on="0"/>
        <pt x="144" y="181" on="0"/>
        <pt x="144" y="140" on="1"/>
        <pt x="144" y="50" on="0"/>
        <pt x="246" y="50" on="1"/>
        <pt x="304" y="50" on="0"/>
        <pt x="387" y="133" on="0"/>
      </contour>
      <contour>
        <pt x="174" y="605" on="0"/>
        <pt x="145" y="634" on="0"/>
        <pt x="145" y="676" on="0"/>
        <pt x="174" y="705" on="0"/>
        <pt x="197" y="705" on="1"/>
        <pt x="220" y="705" on="0"/>
        <pt x="251" y="676" on="0"/>
        <pt x="251" y="634" on="0"/>
        <pt x="220" y="605" on="0"/>
        <pt x="197" y="605" on="1"/>
      </contour>
      <contour>
        <pt x="343" y="605" on="0"/>
        <pt x="313" y="634" on="0"/>
        <pt x="313" y="676" on="0"/>
        <pt x="343" y="705" on="0"/>
        <pt x="388" y="705" on="0"/>
        <pt x="419" y="676" on="0"/>
        <pt x="419" y="634" on="0"/>
        <pt x="388" y="605" on="0"/>
      </contour>
    </TTGlyph>
    <TTGlyph name="agrave" xMin="60" yMin="-11" xMax="465" yMax="731">
      <contour>
        <pt x="387" y="310" on="1"/>
        <pt x="387" y="375" on="0"/>
        <pt x="333" y="431" on="0"/>
        <pt x="230" y="431" on="0"/>
        <pt x="167" y="390" on="0"/>
        <pt x="167" y="346" on="1"/>
        <pt x="80" y="346" on="1"/>
        <pt x="80" y="456" on="0"/>
        <pt x="198" y="482" on="1"/>
        <pt x="234" y="490" on="0"/>
        <pt x="276" y="490" on="1"/>
        <pt x="365" y="490" on="0"/>
        <pt x="465" y="400" on="0"/>
        <pt x="465" y="308" on="1"/>
        <pt x="465" y="0" on="1"/>
        <pt x="397" y="0" on="1"/>
        <pt x="389" y="80" on="1"/>
        <pt x="345" y="-11" on="0"/>
        <pt x="230" y="-11" on="1"/>
        <pt x="153" y="-11" on="0"/>
        <pt x="60" y="75" on="0"/>
        <pt x="60" y="203" on="0"/>
        <pt x="163" y="275" on="0"/>
        <pt x="317" y="275" on="0"/>
        <pt x="387" y="249" on="1"/>
      </contour>
      <contour>
        <pt x="387" y="199" on="1"/>
        <pt x="316" y="219" on="0"/>
        <pt x="210" y="219" on="0"/>
        <pt x="144" y="181" on="0"/>
        <pt x="144" y="140" on="1"/>
        <pt x="144" y="50" on="0"/>
        <pt x="246" y="50" on="1"/>
        <pt x="304" y="50" on="0"/>
        <pt x="387" y="133" on="0"/>
      </contour>
      <contour>
        <pt x="182" y="731" on="1"/>
        <pt x="417" y="598" on="1"/>
        <pt x="394" y="548" on="1"/>
        <pt x="149" y="661" on="1"/>
      </contour>
    </TTGlyph>
    <TTGlyph name="ampersand" xMin="89" yMin="-11" xMax="869" yMax="639">
      <contour>
        <pt x="725" y="350" on="1"/>
        <pt x="680" y="213" on="0"/>
        <pt x="610" y="128" on="1"/>
        <pt x="653" y="91" on="1"/>
        <pt x="673" y="74" on="0"/>
        <pt x="704" y="58" on="0"/>
        <pt x="753" y="58" on="0"/>
        <pt x="792" y="95" on="0"/>
        <pt x="795" y="140" on="1"/>
        <pt x="869" y="140" on="1"/>
        <pt x="865" y="68" on="0"/>
        <pt x="798" y="-11" on="0"/>
        <pt x="734" y="-11" on="1"/>
        <pt x="695" y="-11" on="0"/>
        <pt x="629" y="21" on="0"/>
        <pt x="590" y="56" on="1"/>
        <pt x="564" y="78" on="1"/>
        <pt x="464" y="-11" on="0"/>
        <pt x="336" y="-11" on="1"/>
        <pt x="231" y="-11" on="0"/>
        <pt x="89" y="94" on="0"/>
        <pt x="89" y="242" on="0"/>
        <pt x="184" y="317" on="0"/>
        <pt x="276" y="332" on="1"/>
        <pt x="262" y="345" on="1"/>
        <pt x="185" y="412" on="0"/>
        <pt x="185" y="492" on="1"/>
        <pt x="185" y="555" on="0"/>
        <pt x="290" y="639" on="0"/>
        <pt x="463" y="639" on="0"/>
        <pt x="566" y="555" on="0"/>
        <pt x="566" y="436" on="0"/>
        <pt x="488" y="350" on="0"/>
        <pt x="400" y="312" on="1"/>
        <pt x="558" y="173" on="1"/>
        <pt x="626" y="255" on="0"/>
        <pt x="670" y="380" on="1"/>
      </contour>
      <contour>
        <pt x="248" y="278" on="0"/>
        <pt x="175" y="224" on="0"/>
        <pt x="175" y="128" on="0"/>
        <pt x="258" y="59" on="0"/>
        <pt x="430" y="59" on="0"/>
        <pt x="511" y="125" on="1"/>
        <pt x="325" y="288" on="1"/>
      </contour>
      <contour>
        <pt x="480" y="488" on="1"/>
        <pt x="480" y="524" on="0"/>
        <pt x="425" y="572" on="0"/>
        <pt x="326" y="572" on="0"/>
        <pt x="271" y="517" on="0"/>
        <pt x="271" y="453" on="0"/>
        <pt x="297" y="403" on="0"/>
        <pt x="327" y="377" on="1"/>
        <pt x="354" y="352" on="1"/>
        <pt x="458" y="400" on="0"/>
        <pt x="474" y="452" on="1"/>
        <pt x="480" y="469" on="0"/>
      </contour>
    </TTGlyph>
    <TTGlyph name="apostrophe" xMin="36" yMin="419" xMax="184" yMax="625">
      <contour>
        <pt x="88" y="525" on="0"/>
        <pt x="58" y="551" on="0"/>
        <pt x="58" y="595" on="0"/>
        <pt x="89" y="625" on="0"/>
        <pt x="146" y="625" on="0"/>
        <pt x="184" y="580" on="0"/>
        <pt x="184" y="512" on="0"/>
        <pt x="140" y="441" on="0"/>
        <pt x="95" y="419" on="1"/>
        <pt x="36" y="448" on="1"/>
        <pt x="98" y="478" on="0"/>
        <pt x="111" y="523" on="1"/>
      </contour>
    </TTGlyph>
    <TTGlyph name="asciicircum" xMin="21" yMin="245" xMax="434" yMax="586">
      <contour>
        <pt x="21" y="245" on="1"/>
        <pt x="197" y="586" on="1"/>
        <pt x="258" y="586" on="1"/>
        <pt x="434" y="245" on="1"/>
        <pt x="346" y="245" on="1"/>
        <pt x="227" y="491" on="1"/>
        <pt x="110" y="245" on="1"/>
      </contour>
    </TTGlyph>
    <TTGlyph name="asciitilde" xMin="53" yMin="223" xMax="462" yMax="359">
      <contour>
        <pt x="158" y="282" on="1"/>
        <pt x="121" y="282" on="0"/>
        <pt x="97" y="223" on="1"/>
        <pt x="53" y="246" on="1"/>
        <pt x="86" y="357" on="0"/>
        <pt x="160" y="357" on="1"/>
        <pt x="194" y="357" on="0"/>
        <pt x="328" y="302" on="0"/>
        <pt x="354" y="302" on="1"/>
        <pt x="394" y="302" on="0"/>
        <pt x="419" y="359" on="1"/>
        <pt x="462" y="332" on="1"/>
        <pt x="427" y="226" on="0"/>
        <pt x="349" y="226" on="1"/>
        <pt x="326" y="226" on="0"/>
        <pt x="230" y="262" on="0"/>
        <pt x="216" y="268" on="1"/>
        <pt x="177" y="282" on="0"/>
      </contour>
    </TTGlyph>
    <TTGlyph name="asterisk" xMin="56" yMin="388" xMax="358" yMax="684">
      <contour>
        <pt x="173" y="516" on="1"/>
        <pt x="56" y="556" on="1"/>
        <pt x="80" y="610" on="1"/>
        <pt x="186" y="556" on="1"/>
        <pt x="176" y="684" on="1"/>
        <pt x="238" y="684" on="1"/>
        <pt x="228" y="556" on="1"/>
        <pt x="334" y="610" on="1"/>
        <pt x="358" y="556" on="1"/>
        <pt x="242" y="516" on="1"/>
        <pt x="332" y="427" on="1"/>
        <pt x="288" y="388" on="1"/>
        <pt x="208" y="492" on="1"/>
        <pt x="128" y="388" on="1"/>
        <pt x="83" y="427" on="1"/>
      </contour>
    </TTGlyph>
    <TTGlyph name="at" xMin="67" yMin="-181" xMax="894" yMax="640">
      <contour>
        <pt x="575" y="289" on="1"/>
        <pt x="575" y="373" on="0"/>
        <pt x="516" y="373" on="1"/>
        <pt x="457" y="373" on="0"/>
        <pt x="363" y="276" on="0"/>
        <pt x="363" y="202" on="1"/>
        <pt x="363" y="149" on="0"/>
        <pt x="418" y="91" on="0"/>
        <pt x="500" y="91" on="0"/>
        <pt x="552" y="138" on="0"/>
        <pt x="575" y="183" on="1"/>
      </contour>
      <contour>
        <pt x="641" y="138" on="1"/>
        <pt x="641" y="87" on="0"/>
        <pt x="680" y="87" on="1"/>
        <pt x="700" y="87" on="0"/>
        <pt x="747" y="114" on="0"/>
        <pt x="766" y="140" on="1"/>
        <pt x="812" y="201" on="0"/>
        <pt x="812" y="296" on="1"/>
        <pt x="812" y="415" on="0"/>
        <pt x="650" y="569" on="0"/>
        <pt x="511" y="569" on="1"/>
        <pt x="429" y="569" on="0"/>
        <pt x="295" y="513" on="0"/>
        <pt x="248" y="466" on="1"/>
        <pt x="148" y="366" on="0"/>
        <pt x="148" y="68" on="0"/>
        <pt x="360" y="-117" on="0"/>
        <pt x="545" y="-117" on="1"/>
        <pt x="545" y="-181" on="1"/>
        <pt x="332" y="-181" on="0"/>
        <pt x="198" y="-66" on="1"/>
        <pt x="135" y="-12" on="0"/>
        <pt x="67" y="137" on="0"/>
        <pt x="67" y="315" on="0"/>
        <pt x="133" y="467" on="0"/>
        <pt x="251" y="578" on="0"/>
        <pt x="414" y="640" on="0"/>
        <pt x="596" y="640" on="0"/>
        <pt x="738" y="586" on="0"/>
        <pt x="838" y="493" on="0"/>
        <pt x="894" y="367" on="0"/>
        <pt x="894" y="300" on="1"/>
        <pt x="894" y="178" on="0"/>
        <pt x="765" y="28" on="0"/>
        <pt x="679" y="28" on="1"/>
        <pt x="636" y="28" on="0"/>
        <pt x="584" y="64" on="0"/>
        <pt x="579" y="98" on="1"/>
        <pt x="576" y="114" on="1"/>
        <pt x="558" y="76" on="0"/>
        <pt x="498" y="28" on="0"/>
        <pt x="458" y="28" on="1"/>
        <pt x="384" y="28" on="0"/>
        <pt x="289" y="126" on="0"/>
        <pt x="289" y="201" on="1"/>
        <pt x="289" y="300" on="0"/>
        <pt x="421" y="435" on="0"/>
        <pt x="512" y="435" on="1"/>
        <pt x="572" y="435" on="0"/>
        <pt x="641" y="363" on="0"/>
        <pt x="641" y="290" on="1"/>
      </contour>
    </TTGlyph>
    <TTGlyph name="atilde" xMin="60" yMin="-11" xMax="465" yMax="713">
      <contour>
        <pt x="387" y="310" on="1"/>
        <pt x="387" y="375" on="0"/>
        <pt x="333" y="431" on="0"/>
        <pt x="230" y="431" on="0"/>
        <pt x="167" y="390" on="0"/>
        <pt x="167" y="346" on="1"/>
        <pt x="80" y="346" on="1"/>
        <pt x="80" y="456" on="0"/>
        <pt x="198" y="482" on="1"/>
        <pt x="234" y="490" on="0"/>
        <pt x="276" y="490" on="1"/>
        <pt x="365" y="490" on="0"/>
        <pt x="465" y="400" on="0"/>
        <pt x="465" y="308" on="1"/>
        <pt x="465" y="0" on="1"/>
        <pt x="397" y="0" on="1"/>
        <pt x="389" y="80" on="1"/>
        <pt x="345" y="-11" on="0"/>
        <pt x="230" y="-11" on="1"/>
        <pt x="153" y="-11" on="0"/>
        <pt x="60" y="75" on="0"/>
        <pt x="60" y="203" on="0"/>
        <pt x="163" y="275" on="0"/>
        <pt x="317" y="275" on="0"/>
        <pt x="387" y="249" on="1"/>
      </contour>
      <contour>
        <pt x="387" y="199" on="1"/>
        <pt x="316" y="219" on="0"/>
        <pt x="210" y="219" on="0"/>
        <pt x="144" y="181" on="0"/>
        <pt x="144" y="140" on="1"/>
        <pt x="144" y="50" on="0"/>
        <pt x="246" y="50" on="1"/>
        <pt x="303" y="50" on="0"/>
        <pt x="385" y="130" on="0"/>
        <pt x="387" y="193" on="1"/>
      </contour>
      <contour>
        <pt x="213" y="641" on="1"/>
        <pt x="181" y="641" on="0"/>
        <pt x="156" y="590" on="1"/>
        <pt x="124" y="609" on="1"/>
        <pt x="136" y="660" on="0"/>
        <pt x="182" y="713" on="0"/>
        <pt x="234" y="713" on="0"/>
        <pt x="268" y="696" on="1"/>
        <pt x="314" y="673" on="0"/>
        <pt x="341" y="661" on="0"/>
        <pt x="367" y="661" on="0"/>
        <pt x="395" y="686" on="0"/>
        <pt x="405" y="713" on="1"/>
        <pt x="440" y="690" on="1"/>
        <pt x="429" y="642" on="0"/>
        <pt x="380" y="590" on="0"/>
        <pt x="339" y="590" on="0"/>
        <pt x="305" y="602" on="0"/>
        <pt x="245" y="633" on="0"/>
        <pt x="224" y="641" on="0"/>
      </contour>
    </TTGlyph>
    <TTGlyph name="b" xMin="101" yMin="-11" xMax="534" yMax="681">
      <contour>
        <pt x="180" y="407" on="1"/>
        <pt x="228" y="490" on="0"/>
        <pt x="412" y="490" on="0"/>
        <pt x="534" y="353" on="0"/>
        <pt x="534" y="128" on="0"/>
        <pt x="410" y="-11" on="0"/>
        <pt x="321" y="-11" on="1"/>
        <pt x="273" y="-11" on="0"/>
        <pt x="196" y="37" on="0"/>
        <pt x="174" y="84" on="1"/>
        <pt x="156" y="0" on="1"/>
        <pt x="101" y="0" on="1"/>
        <pt x="101" y="681" on="1"/>
        <pt x="180" y="681" on="1"/>
      </contour>
      <contour>
        <pt x="258" y="420" on="0"/>
        <pt x="182" y="347" on="0"/>
        <pt x="180" y="282" on="1"/>
        <pt x="180" y="204" on="1"/>
        <pt x="180" y="138" on="0"/>
        <pt x="259" y="59" on="0"/>
        <pt x="371" y="59" on="0"/>
        <pt x="453" y="158" on="0"/>
        <pt x="453" y="322" on="0"/>
        <pt x="372" y="420" on="0"/>
      </contour>
    </TTGlyph>
    <TTGlyph name="backslash" xMin="45" yMin="-73" xMax="376" yMax="731">
      <contour>
        <pt x="45" y="731" on="1"/>
        <pt x="124" y="731" on="1"/>
        <pt x="376" y="-73" on="1"/>
        <pt x="296" y="-73" on="1"/>
      </contour>
    </TTGlyph>
    <TTGlyph name="bar" xMin="101" yMin="-122" xMax="180" yMax="750">
      <contour>
        <pt x="101" y="750" on="1"/>
        <pt x="180" y="750" on="1"/>
        <pt x="180" y="-122" on="1"/>
        <pt x="101" y="-122" on="1"/>
      </contour>
    </TTGlyph>
    <TTGlyph name="braceleft" xMin="75" yMin="-138" xMax="341" yMax="748">
      <contour>
        <pt x="154" y="303" on="1"/>
        <pt x="206" y="278" on="0"/>
        <pt x="206" y="190" on="1"/>
        <pt x="206" y="97" on="1"/>
        <pt x="206" y="16" on="0"/>
        <pt x="267" y="-69" on="0"/>
        <pt x="341" y="-69" on="1"/>
        <pt x="341" y="-138" on="1"/>
        <pt x="128" y="-138" on="0"/>
        <pt x="128" y="96" on="1"/>
        <pt x="128" y="188" on="1"/>
        <pt x="128" y="231" on="0"/>
        <pt x="111" y="267" on="0"/>
        <pt x="92" y="267" on="1"/>
        <pt x="75" y="267" on="1"/>
        <pt x="75" y="343" on="1"/>
        <pt x="92" y="343" on="1"/>
        <pt x="111" y="343" on="0"/>
        <pt x="128" y="378" on="0"/>
        <pt x="128" y="422" on="1"/>
        <pt x="128" y="513" on="1"/>
        <pt x="128" y="681" on="0"/>
        <pt x="242" y="730" on="1"/>
        <pt x="282" y="748" on="0"/>
        <pt x="341" y="748" on="1"/>
        <pt x="341" y="679" on="1"/>
        <pt x="267" y="679" on="0"/>
        <pt x="206" y="594" on="0"/>
        <pt x="206" y="512" on="1"/>
        <pt x="206" y="420" on="1"/>
        <pt x="206" y="334" on="0"/>
        <pt x="154" y="307" on="1"/>
      </contour>
    </TTGlyph>
    <TTGlyph name="braceright" xMin="8" yMin="-138" xMax="274" yMax="748">
      <contour>
        <pt x="195" y="307" on="1"/>
        <pt x="143" y="334" on="0"/>
        <pt x="143" y="420" on="1"/>
        <pt x="143" y="512" on="1"/>
        <pt x="143" y="594" on="0"/>
        <pt x="82" y="679" on="0"/>
        <pt x="8" y="679" on="1"/>
        <pt x="8" y="748" on="1"/>
        <pt x="221" y="748" on="0"/>
        <pt x="221" y="513" on="1"/>
        <pt x="221" y="422" on="1"/>
        <pt x="221" y="378" on="0"/>
        <pt x="238" y="343" on="0"/>
        <pt x="257" y="343" on="1"/>
        <pt x="274" y="343" on="1"/>
        <pt x="274" y="267" on="1"/>
        <pt x="257" y="267" on="1"/>
        <pt x="238" y="267" on="0"/>
        <pt x="221" y="231" on="0"/>
        <pt x="221" y="188" on="1"/>
        <pt x="221" y="96" on="1"/>
        <pt x="221" y="-72" on="0"/>
        <pt x="107" y="-120" on="1"/>
        <pt x="66" y="-138" on="0"/>
        <pt x="8" y="-138" on="1"/>
        <pt x="8" y="-69" on="1"/>
        <pt x="82" y="-69" on="0"/>
        <pt x="143" y="16" on="0"/>
        <pt x="143" y="97" on="1"/>
        <pt x="143" y="190" on="1"/>
        <pt x="143" y="278" on="0"/>
        <pt x="195" y="303" on="1"/>
      </contour>
    </TTGlyph>
    <TTGlyph name="bracketleft" xMin="101" yMin="-102" xMax="299" yMax="731">
      <contour>
        <pt x="101" y="731" on="1"/>
        <pt x="299" y="731" on="1"/>
        <pt x="299" y="661" on="1"/>
        <pt x="180" y="661" on="1"/>
        <pt x="180" y="-32" on="1"/>
        <pt x="299" y="-32" on="1"/>
        <pt x="299" y="-102" on="1"/>
        <pt x="101" y="-102" on="1"/>
      </contour>
    </TTGlyph>
    <TTGlyph name="bracketright" xMin="-14" yMin="-102" xMax="184" yMax="731">
      <contour>
        <pt x="184" y="-102" on="1"/>
        <pt x="-14" y="-102" on="1"/>
        <pt x="-14" y="-32" on="1"/>
        <pt x="105" y="-32" on="1"/>
        <pt x="105" y="661" on="1"/>
        <pt x="-14" y="661" on="1"/>
        <pt x="-14" y="731" on="1"/>
        <pt x="184" y="731" on="1"/>
      </contour>
    </TTGlyph>
    <TTGlyph name="c" xMin="50" yMin="-11" xMax="461" yMax="490">
      <contour>
        <pt x="345" y="490" on="0"/>
        <pt x="445" y="403" on="0"/>
        <pt x="460" y="338" on="1"/>
        <pt x="380" y="331" on="1"/>
        <pt x="367" y="373" on="0"/>
        <pt x="309" y="420" on="0"/>
        <pt x="274" y="420" on="1"/>
        <pt x="210" y="420" on="0"/>
        <pt x="131" y="324" on="0"/>
        <pt x="131" y="159" on="0"/>
        <pt x="208" y="59" on="0"/>
        <pt x="323" y="59" on="0"/>
        <pt x="380" y="112" on="0"/>
        <pt x="380" y="161" on="1"/>
        <pt x="461" y="161" on="1"/>
        <pt x="461" y="84" on="0"/>
        <pt x="354" y="-11" on="0"/>
        <pt x="268" y="-11" on="1"/>
        <pt x="177" y="-11" on="0"/>
        <pt x="50" y="127" on="0"/>
        <pt x="50" y="356" on="0"/>
        <pt x="176" y="490" on="0"/>
      </contour>
    </TTGlyph>
    <TTGlyph name="circumflex" xMin="24" yMin="677" xMax="383" yMax="872">
      <contour>
        <pt x="383" y="716" on="1"/>
        <pt x="333" y="677" on="1"/>
        <pt x="204" y="785" on="1"/>
        <pt x="74" y="677" on="1"/>
        <pt x="24" y="716" on="1"/>
        <pt x="204" y="872" on="1"/>
      </contour>
    </TTGlyph>
    <TTGlyph name="colon" xMin="56" yMin="23" xMax="174" yMax="442">
      <contour>
        <pt x="89" y="23" on="0"/>
        <pt x="56" y="56" on="0"/>
        <pt x="56" y="103" on="0"/>
        <pt x="89" y="136" on="0"/>
        <pt x="140" y="136" on="0"/>
        <pt x="174" y="103" on="0"/>
        <pt x="174" y="56" on="0"/>
        <pt x="140" y="23" on="0"/>
      </contour>
      <contour>
        <pt x="89" y="329" on="0"/>
        <pt x="56" y="362" on="0"/>
        <pt x="56" y="409" on="0"/>
        <pt x="89" y="442" on="0"/>
        <pt x="140" y="442" on="0"/>
        <pt x="174" y="409" on="0"/>
        <pt x="174" y="362" on="0"/>
        <pt x="140" y="329" on="0"/>
      </contour>
    </TTGlyph>
    <TTGlyph name="comma" xMin="30" yMin="-109" xMax="178" yMax="97">
      <contour>
        <pt x="82" y="-3" on="0"/>
        <pt x="52" y="23" on="0"/>
        <pt x="52" y="67" on="0"/>
        <pt x="83" y="97" on="0"/>
        <pt x="140" y="97" on="0"/>
        <pt x="178" y="52" on="0"/>
        <pt x="178" y="-16" on="0"/>
        <pt x="134" y="-87" on="0"/>
        <pt x="89" y="-109" on="1"/>
        <pt x="30" y="-80" on="1"/>
        <pt x="92" y="-50" on="0"/>
        <pt x="105" y="-5" on="1"/>
      </contour>
    </TTGlyph>
    <TTGlyph name="d" xMin="60" yMin="-11" xMax="492" yMax="681">
      <contour>
        <pt x="414" y="407" on="1"/>
        <pt x="414" y="681" on="1"/>
        <pt x="492" y="681" on="1"/>
        <pt x="492" y="0" on="1"/>
        <pt x="428" y="0" on="1"/>
        <pt x="418" y="80" on="1"/>
        <pt x="395" y="35" on="0"/>
        <pt x="319" y="-11" on="0"/>
        <pt x="274" y="-11" on="1"/>
        <pt x="183" y="-11" on="0"/>
        <pt x="60" y="129" on="0"/>
        <pt x="60" y="354" on="0"/>
        <pt x="181" y="490" on="0"/>
        <pt x="366" y="490" on="0"/>
      </contour>
      <contour>
        <pt x="220" y="420" on="0"/>
        <pt x="141" y="322" on="0"/>
        <pt x="141" y="158" on="0"/>
        <pt x="221" y="59" on="0"/>
        <pt x="333" y="59" on="0"/>
        <pt x="412" y="134" on="0"/>
        <pt x="414" y="197" on="1"/>
        <pt x="414" y="275" on="1"/>
        <pt x="414" y="342" on="0"/>
        <pt x="336" y="420" on="0"/>
      </contour>
    </TTGlyph>
    <TTGlyph name="dieresis" xMin="24" yMin="779" xMax="298" yMax="879">
      <contour>
        <pt x="53" y="779" on="0"/>
        <pt x="24" y="808" on="0"/>
        <pt x="24" y="850" on="0"/>
        <pt x="53" y="879" on="0"/>
        <pt x="76" y="879" on="1"/>
        <pt x="99" y="879" on="0"/>
        <pt x="130" y="850" on="0"/>
        <pt x="130" y="808" on="0"/>
        <pt x="99" y="779" on="0"/>
        <pt x="76" y="779" on="1"/>
      </contour>
      <contour>
        <pt x="222" y="779" on="0"/>
        <pt x="192" y="808" on="0"/>
        <pt x="192" y="850" on="0"/>
        <pt x="222" y="879" on="0"/>
        <pt x="267" y="879" on="0"/>
        <pt x="298" y="850" on="0"/>
        <pt x="298" y="808" on="0"/>
        <pt x="267" y="779" on="0"/>
      </contour>
    </TTGlyph>
    <TTGlyph name="dollar" xMin="69" yMin="-91" xMax="563" yMax="713">
      <contour>
        <pt x="417" y="330" on="1"/>
        <pt x="486" y="307" on="0"/>
        <pt x="563" y="230" on="0"/>
        <pt x="563" y="97" on="0"/>
        <pt x="449" y="-4" on="0"/>
        <pt x="347" y="-10" on="1"/>
        <pt x="347" y="-91" on="1"/>
        <pt x="285" y="-91" on="1"/>
        <pt x="285" y="-9" on="1"/>
        <pt x="190" y="-1" on="0"/>
        <pt x="69" y="102" on="0"/>
        <pt x="69" y="189" on="1"/>
        <pt x="146" y="189" on="1"/>
        <pt x="146" y="76" on="0"/>
        <pt x="285" y="63" on="1"/>
        <pt x="285" y="298" on="1"/>
        <pt x="253" y="310" on="1"/>
        <pt x="170" y="336" on="0"/>
        <pt x="85" y="408" on="0"/>
        <pt x="85" y="542" on="0"/>
        <pt x="186" y="631" on="0"/>
        <pt x="285" y="638" on="1"/>
        <pt x="285" y="713" on="1"/>
        <pt x="347" y="713" on="1"/>
        <pt x="347" y="637" on="1"/>
        <pt x="434" y="630" on="0"/>
        <pt x="528" y="544" on="0"/>
        <pt x="539" y="476" on="1"/>
        <pt x="461" y="476" on="1"/>
        <pt x="444" y="556" on="0"/>
        <pt x="347" y="568" on="1"/>
        <pt x="347" y="353" on="1"/>
      </contour>
      <contour>
        <pt x="475" y="167" on="1"/>
        <pt x="475" y="241" on="0"/>
        <pt x="383" y="270" on="1"/>
        <pt x="347" y="282" on="1"/>
        <pt x="347" y="62" on="1"/>
        <pt x="410" y="67" on="0"/>
        <pt x="475" y="129" on="0"/>
      </contour>
      <contour>
        <pt x="228" y="563" on="0"/>
        <pt x="170" y="509" on="0"/>
        <pt x="170" y="436" on="0"/>
        <pt x="210" y="395" on="0"/>
        <pt x="255" y="381" on="1"/>
        <pt x="285" y="370" on="1"/>
        <pt x="285" y="569" on="1"/>
      </contour>
    </TTGlyph>
    <TTGlyph name="dotlessi" xMin="101" yMin="0" xMax="180" yMax="479">
      <contour>
        <pt x="101" y="479" on="1"/>
        <pt x="180" y="479" on="1"/>
        <pt x="180" y="0" on="1"/>
        <pt x="101" y="0" on="1"/>
      </contour>
    </TTGlyph>
    <TTGlyph name="e" xMin="50" yMin="-11" xMax="471" yMax="490">
      <contour>
        <pt x="266" y="53" on="1"/>
        <pt x="365" y="53" on="0"/>
        <pt x="379" y="140" on="1"/>
        <pt x="460" y="140" on="1"/>
        <pt x="449" y="68" on="0"/>
        <pt x="344" y="-11" on="0"/>
        <pt x="266" y="-11" on="1"/>
        <pt x="170" y="-11" on="0"/>
        <pt x="50" y="126" on="0"/>
        <pt x="50" y="354" on="0"/>
        <pt x="171" y="490" on="0"/>
        <pt x="372" y="490" on="0"/>
        <pt x="471" y="334" on="0"/>
        <pt x="456" y="222" on="1"/>
        <pt x="129" y="222" on="1"/>
        <pt x="129" y="148" on="0"/>
        <pt x="201" y="53" on="0"/>
      </contour>
      <contour>
        <pt x="324" y="415" on="1"/>
        <pt x="301" y="427" on="0"/>
        <pt x="268" y="427" on="1"/>
        <pt x="207" y="427" on="0"/>
        <pt x="136" y="344" on="0"/>
        <pt x="130" y="282" on="1"/>
        <pt x="385" y="282" on="1"/>
        <pt x="385" y="382" on="0"/>
      </contour>
    </TTGlyph>
    <TTGlyph name="eacute" xMin="51" yMin="-11" xMax="472" yMax="736">
      <contour>
        <pt x="380" y="140" on="1"/>
        <pt x="366" y="53" on="0"/>
        <pt x="267" y="53" on="1"/>
        <pt x="202" y="53" on="0"/>
        <pt x="130" y="148" on="0"/>
        <pt x="130" y="222" on="1"/>
        <pt x="457" y="222" on="1"/>
        <pt x="472" y="334" on="0"/>
        <pt x="373" y="490" on="0"/>
        <pt x="172" y="490" on="0"/>
        <pt x="51" y="354" on="0"/>
        <pt x="51" y="126" on="0"/>
        <pt x="171" y="-11" on="0"/>
        <pt x="267" y="-11" on="1"/>
        <pt x="345" y="-11" on="0"/>
        <pt x="450" y="68" on="0"/>
        <pt x="461" y="140" on="1"/>
      </contour>
      <contour>
        <pt x="331" y="427" on="0"/>
        <pt x="386" y="344" on="0"/>
        <pt x="386" y="282" on="1"/>
        <pt x="131" y="282" on="1"/>
        <pt x="137" y="344" on="0"/>
        <pt x="208" y="427" on="0"/>
      </contour>
      <contour>
        <pt x="392" y="666" on="1"/>
        <pt x="148" y="553" on="1"/>
        <pt x="125" y="603" on="1"/>
        <pt x="360" y="736" on="1"/>
      </contour>
    </TTGlyph>
    <TTGlyph name="ecircumflex" xMin="54" yMin="-11" xMax="475" yMax="748">
      <contour>
        <pt x="270" y="53" on="1"/>
        <pt x="369" y="53" on="0"/>
        <pt x="383" y="140" on="1"/>
        <pt x="464" y="140" on="1"/>
        <pt x="453" y="68" on="0"/>
        <pt x="348" y="-11" on="0"/>
        <pt x="270" y="-11" on="1"/>
        <pt x="174" y="-11" on="0"/>
        <pt x="54" y="126" on="0"/>
        <pt x="54" y="354" on="0"/>
        <pt x="175" y="490" on="0"/>
        <pt x="376" y="490" on="0"/>
        <pt x="475" y="334" on="0"/>
        <pt x="460" y="222" on="1"/>
        <pt x="133" y="222" on="1"/>
        <pt x="133" y="148" on="0"/>
        <pt x="205" y="53" on="0"/>
      </contour>
      <contour>
        <pt x="328" y="415" on="1"/>
        <pt x="305" y="427" on="0"/>
        <pt x="272" y="427" on="1"/>
        <pt x="211" y="427" on="0"/>
        <pt x="140" y="344" on="0"/>
        <pt x="134" y="282" on="1"/>
        <pt x="389" y="282" on="1"/>
        <pt x="389" y="382" on="0"/>
      </contour>
      <contour>
        <pt x="442" y="592" on="1"/>
        <pt x="392" y="553" on="1"/>
        <pt x="263" y="661" on="1"/>
        <pt x="133" y="553" on="1"/>
        <pt x="83" y="592" on="1"/>
        <pt x="263" y="748" on="1"/>
      </contour>
    </TTGlyph>
    <TTGlyph name="edieresis" xMin="51" yMin="-11" xMax="472" yMax="705">
      <contour>
        <pt x="267" y="53" on="1"/>
        <pt x="366" y="53" on="0"/>
        <pt x="380" y="140" on="1"/>
        <pt x="461" y="140" on="1"/>
        <pt x="450" y="68" on="0"/>
        <pt x="345" y="-11" on="0"/>
        <pt x="267" y="-11" on="1"/>
        <pt x="171" y="-11" on="0"/>
        <pt x="51" y="126" on="0"/>
        <pt x="51" y="354" on="0"/>
        <pt x="172" y="490" on="0"/>
        <pt x="373" y="490" on="0"/>
        <pt x="472" y="334" on="0"/>
        <pt x="457" y="222" on="1"/>
        <pt x="130" y="222" on="1"/>
        <pt x="130" y="148" on="0"/>
        <pt x="202" y="53" on="0"/>
      </contour>
      <contour>
        <pt x="324" y="415" on="1"/>
        <pt x="302" y="427" on="0"/>
        <pt x="270" y="427" on="1"/>
        <pt x="208" y="427" on="0"/>
        <pt x="137" y="344" on="0"/>
        <pt x="131" y="282" on="1"/>
        <pt x="386" y="282" on="1"/>
        <pt x="386" y="382" on="0"/>
      </contour>
      <contour>
        <pt x="152" y="605" on="0"/>
        <pt x="123" y="634" on="0"/>
        <pt x="123" y="676" on="0"/>
        <pt x="152" y="705" on="0"/>
        <pt x="175" y="705" on="1"/>
        <pt x="198" y="705" on="0"/>
        <pt x="229" y="676" on="0"/>
        <pt x="229" y="634" on="0"/>
        <pt x="198" y="605" on="0"/>
        <pt x="175" y="605" on="1"/>
      </contour>
      <contour>
        <pt x="321" y="605" on="0"/>
        <pt x="291" y="634" on="0"/>
        <pt x="291" y="676" on="0"/>
        <pt x="321" y="705" on="0"/>
        <pt x="366" y="705" on="0"/>
        <pt x="397" y="676" on="0"/>
        <pt x="397" y="634" on="0"/>
        <pt x="366" y="605" on="0"/>
      </contour>
    </TTGlyph>
    <TTGlyph name="egrave" xMin="51" yMin="-11" xMax="472" yMax="736">
      <contour>
        <pt x="267" y="53" on="1"/>
        <pt x="366" y="53" on="0"/>
        <pt x="380" y="140" on="1"/>
        <pt x="461" y="140" on="1"/>
        <pt x="450" y="68" on="0"/>
        <pt x="345" y="-11" on="0"/>
        <pt x="267" y="-11" on="1"/>
        <pt x="171" y="-11" on="0"/>
        <pt x="51" y="126" on="0"/>
        <pt x="51" y="354" on="0"/>
        <pt x="172" y="490" on="0"/>
        <pt x="373" y="490" on="0"/>
        <pt x="472" y="334" on="0"/>
        <pt x="457" y="222" on="1"/>
        <pt x="130" y="222" on="1"/>
        <pt x="130" y="148" on="0"/>
        <pt x="202" y="53" on="0"/>
      </contour>
      <contour>
        <pt x="324" y="415" on="1"/>
        <pt x="302" y="427" on="0"/>
        <pt x="270" y="427" on="1"/>
        <pt x="208" y="427" on="0"/>
        <pt x="137" y="344" on="0"/>
        <pt x="131" y="282" on="1"/>
        <pt x="386" y="282" on="1"/>
        <pt x="386" y="382" on="0"/>
      </contour>
      <contour>
        <pt x="159" y="736" on="1"/>
        <pt x="394" y="603" on="1"/>
        <pt x="371" y="553" on="1"/>
        <pt x="126" y="666" on="1"/>
      </contour>
    </TTGlyph>
    <TTGlyph name="eight" xMin="55" yMin="-11" xMax="561" yMax="640">
      <contour>
        <pt x="201" y="318" on="1"/>
        <pt x="76" y="375" on="0"/>
        <pt x="76" y="473" on="1"/>
        <pt x="76" y="548" on="0"/>
        <pt x="200" y="640" on="0"/>
        <pt x="405" y="640" on="0"/>
        <pt x="537" y="542" on="0"/>
        <pt x="537" y="465" on="1"/>
        <pt x="537" y="413" on="0"/>
        <pt x="468" y="331" on="0"/>
        <pt x="401" y="321" on="1"/>
        <pt x="418" y="315" on="1"/>
        <pt x="487" y="289" on="0"/>
        <pt x="561" y="218" on="0"/>
        <pt x="561" y="157" on="1"/>
        <pt x="561" y="81" on="0"/>
        <pt x="426" y="-11" on="0"/>
        <pt x="197" y="-11" on="0"/>
        <pt x="55" y="91" on="0"/>
        <pt x="55" y="168" on="1"/>
        <pt x="55" y="230" on="0"/>
        <pt x="136" y="308" on="0"/>
      </contour>
      <contour>
        <pt x="276" y="289" on="1"/>
        <pt x="213" y="282" on="0"/>
        <pt x="137" y="217" on="0"/>
        <pt x="137" y="121" on="0"/>
        <pt x="233" y="61" on="0"/>
        <pt x="388" y="61" on="0"/>
        <pt x="479" y="113" on="0"/>
        <pt x="479" y="187" on="0"/>
        <pt x="431" y="232" on="0"/>
        <pt x="389" y="247" on="1"/>
      </contour>
      <contour>
        <pt x="159" y="463" on="1"/>
        <pt x="159" y="436" on="0"/>
        <pt x="203" y="397" on="0"/>
        <pt x="244" y="381" on="1"/>
        <pt x="317" y="353" on="1"/>
        <pt x="377" y="355" on="0"/>
        <pt x="455" y="414" on="0"/>
        <pt x="455" y="509" on="0"/>
        <pt x="373" y="568" on="0"/>
        <pt x="243" y="568" on="0"/>
        <pt x="159" y="511" on="0"/>
      </contour>
    </TTGlyph>
    <TTGlyph name="eight.propold" xMin="55" yMin="-11" xMax="561" yMax="640">
      <contour>
        <pt x="201" y="318" on="1"/>
        <pt x="76" y="375" on="0"/>
        <pt x="76" y="473" on="1"/>
        <pt x="76" y="548" on="0"/>
        <pt x="200" y="640" on="0"/>
        <pt x="405" y="640" on="0"/>
        <pt x="537" y="542" on="0"/>
        <pt x="537" y="465" on="1"/>
        <pt x="537" y="413" on="0"/>
        <pt x="468" y="331" on="0"/>
        <pt x="401" y="321" on="1"/>
        <pt x="418" y="315" on="1"/>
        <pt x="487" y="289" on="0"/>
        <pt x="561" y="218" on="0"/>
        <pt x="561" y="157" on="1"/>
        <pt x="561" y="81" on="0"/>
        <pt x="426" y="-11" on="0"/>
        <pt x="197" y="-11" on="0"/>
        <pt x="55" y="91" on="0"/>
        <pt x="55" y="168" on="1"/>
        <pt x="55" y="230" on="0"/>
        <pt x="136" y="308" on="0"/>
      </contour>
      <contour>
        <pt x="276" y="289" on="1"/>
        <pt x="213" y="282" on="0"/>
        <pt x="137" y="217" on="0"/>
        <pt x="137" y="121" on="0"/>
        <pt x="233" y="61" on="0"/>
        <pt x="388" y="61" on="0"/>
        <pt x="479" y="113" on="0"/>
        <pt x="479" y="187" on="0"/>
        <pt x="431" y="232" on="0"/>
        <pt x="389" y="247" on="1"/>
      </contour>
      <contour>
        <pt x="159" y="463" on="1"/>
        <pt x="159" y="436" on="0"/>
        <pt x="203" y="397" on="0"/>
        <pt x="244" y="381" on="1"/>
        <pt x="317" y="353" on="1"/>
        <pt x="377" y="355" on="0"/>
        <pt x="455" y="414" on="0"/>
        <pt x="455" y="509" on="0"/>
        <pt x="373" y="568" on="0"/>
        <pt x="243" y="568" on="0"/>
        <pt x="159" y="511" on="0"/>
      </contour>
    </TTGlyph>
    <TTGlyph name="emdash" xMin="55" yMin="257" xMax="671" yMax="325">
      <contour>
        <pt x="55" y="325" on="1"/>
        <pt x="671" y="325" on="1"/>
        <pt x="671" y="257" on="1"/>
        <pt x="55" y="257" on="1"/>
      </contour>
    </TTGlyph>
    <TTGlyph name="endash" xMin="55" yMin="257" xMax="419" yMax="325">
      <contour>
        <pt x="55" y="325" on="1"/>
        <pt x="419" y="325" on="1"/>
        <pt x="419" y="257" on="1"/>
        <pt x="55" y="257" on="1"/>
      </contour>
    </TTGlyph>
    <TTGlyph name="equal" xMin="79" yMin="117" xMax="409" yMax="377">
      <contour>
        <pt x="409" y="185" on="1"/>
        <pt x="409" y="117" on="1"/>
        <pt x="79" y="117" on="1"/>
        <pt x="79" y="185" on="1"/>
      </contour>
      <contour>
        <pt x="409" y="377" on="1"/>
        <pt x="409" y="308" on="1"/>
        <pt x="79" y="308" on="1"/>
        <pt x="79" y="377" on="1"/>
      </contour>
    </TTGlyph>
    <TTGlyph name="exclam" xMin="82" yMin="-9" xMax="201" yMax="627">
      <contour>
        <pt x="99" y="627" on="1"/>
        <pt x="182" y="627" on="1"/>
        <pt x="173" y="176" on="1"/>
        <pt x="109" y="176" on="1"/>
      </contour>
      <contour>
        <pt x="115" y="-9" on="0"/>
        <pt x="82" y="24" on="0"/>
        <pt x="82" y="71" on="0"/>
        <pt x="115" y="104" on="0"/>
        <pt x="166" y="104" on="0"/>
        <pt x="201" y="71" on="0"/>
        <pt x="201" y="24" on="0"/>
        <pt x="166" y="-9" on="0"/>
      </contour>
    </TTGlyph>
    <TTGlyph name="f" xMin="49" yMin="0" xMax="347" yMax="689">
      <contour>
        <pt x="333" y="614" on="1"/>
        <pt x="300" y="627" on="0"/>
        <pt x="281" y="627" on="1"/>
        <pt x="246" y="627" on="0"/>
        <pt x="206" y="593" on="0"/>
        <pt x="206" y="550" on="1"/>
        <pt x="206" y="478" on="1"/>
        <pt x="305" y="478" on="1"/>
        <pt x="305" y="424" on="1"/>
        <pt x="206" y="424" on="1"/>
        <pt x="206" y="0" on="1"/>
        <pt x="128" y="0" on="1"/>
        <pt x="128" y="424" on="1"/>
        <pt x="49" y="424" on="1"/>
        <pt x="49" y="478" on="1"/>
        <pt x="128" y="478" on="1"/>
        <pt x="128" y="551" on="1"/>
        <pt x="128" y="622" on="0"/>
        <pt x="206" y="689" on="0"/>
        <pt x="308" y="689" on="0"/>
        <pt x="347" y="676" on="1"/>
      </contour>
    </TTGlyph>
    <TTGlyph name="five" xMin="65" yMin="-11" xMax="509" yMax="629">
      <contour>
        <pt x="427" y="204" on="1"/>
        <pt x="427" y="323" on="0"/>
        <pt x="272" y="323" on="1"/>
        <pt x="103" y="323" on="1"/>
        <pt x="130" y="629" on="1"/>
        <pt x="479" y="629" on="1"/>
        <pt x="479" y="557" on="1"/>
        <pt x="206" y="557" on="1"/>
        <pt x="189" y="376" on="1"/>
        <pt x="241" y="385" on="0"/>
        <pt x="288" y="385" on="1"/>
        <pt x="391" y="385" on="0"/>
        <pt x="509" y="294" on="0"/>
        <pt x="509" y="110" on="0"/>
        <pt x="385" y="-11" on="0"/>
        <pt x="189" y="-11" on="0"/>
        <pt x="65" y="88" on="0"/>
        <pt x="65" y="175" on="1"/>
        <pt x="144" y="175" on="1"/>
        <pt x="144" y="93" on="0"/>
        <pt x="228" y="68" on="1"/>
        <pt x="254" y="61" on="0"/>
        <pt x="285" y="61" on="1"/>
        <pt x="349" y="61" on="0"/>
        <pt x="427" y="142" on="0"/>
      </contour>
    </TTGlyph>
    <TTGlyph name="five.propold" xMin="65" yMin="-114" xMax="506" yMax="545">
      <contour>
        <pt x="187" y="296" on="1"/>
        <pt x="233" y="306" on="0"/>
        <pt x="281" y="306" on="1"/>
        <pt x="386" y="306" on="0"/>
        <pt x="506" y="200" on="0"/>
        <pt x="506" y="12" on="0"/>
        <pt x="372" y="-114" on="0"/>
        <pt x="182" y="-114" on="0"/>
        <pt x="65" y="-14" on="0"/>
        <pt x="65" y="75" on="1"/>
        <pt x="142" y="75" on="1"/>
        <pt x="142" y="18" on="0"/>
        <pt x="212" y="-42" on="0"/>
        <pt x="338" y="-42" on="0"/>
        <pt x="426" y="42" on="0"/>
        <pt x="426" y="169" on="0"/>
        <pt x="345" y="241" on="0"/>
        <pt x="266" y="241" on="1"/>
        <pt x="104" y="241" on="1"/>
        <pt x="132" y="545" on="1"/>
        <pt x="477" y="545" on="1"/>
        <pt x="477" y="474" on="1"/>
        <pt x="205" y="474" on="1"/>
      </contour>
    </TTGlyph>
    <TTGlyph name="four" xMin="26" yMin="0" xMax="537" yMax="638">
      <contour>
        <pt x="428" y="638" on="1"/>
        <pt x="428" y="220" on="1"/>
        <pt x="537" y="220" on="1"/>
        <pt x="537" y="152" on="1"/>
        <pt x="428" y="152" on="1"/>
        <pt x="428" y="0" on="1"/>
        <pt x="351" y="0" on="1"/>
        <pt x="351" y="152" on="1"/>
        <pt x="26" y="152" on="1"/>
        <pt x="26" y="213" on="1"/>
        <pt x="355" y="638" on="1"/>
      </contour>
      <contour>
        <pt x="120" y="213" on="1"/>
        <pt x="353" y="213" on="1"/>
        <pt x="353" y="513" on="1"/>
      </contour>
    </TTGlyph>
    <TTGlyph name="four.propold" xMin="24" yMin="-105" xMax="536" yMax="546">
      <contour>
        <pt x="427" y="546" on="1"/>
        <pt x="427" y="121" on="1"/>
        <pt x="536" y="121" on="1"/>
        <pt x="536" y="54" on="1"/>
        <pt x="427" y="54" on="1"/>
        <pt x="427" y="-105" on="1"/>
        <pt x="349" y="-105" on="1"/>
        <pt x="349" y="54" on="1"/>
        <pt x="24" y="54" on="1"/>
        <pt x="24" y="115" on="1"/>
        <pt x="353" y="546" on="1"/>
      </contour>
      <contour>
        <pt x="112" y="115" on="1"/>
        <pt x="351" y="115" on="1"/>
        <pt x="351" y="422" on="1"/>
      </contour>
    </TTGlyph>
    <TTGlyph name="g" xMin="28" yMin="-246" xMax="549" yMax="571">
      <contour>
        <pt x="121" y="15" on="1"/>
        <pt x="61" y="44" on="0"/>
        <pt x="61" y="104" on="1"/>
        <pt x="61" y="135" on="0"/>
        <pt x="108" y="182" on="0"/>
        <pt x="143" y="190" on="1"/>
        <pt x="89" y="238" on="0"/>
        <pt x="89" y="316" on="1"/>
        <pt x="89" y="394" on="0"/>
        <pt x="200" y="490" on="0"/>
        <pt x="352" y="490" on="0"/>
        <pt x="405" y="454" on="1"/>
        <pt x="412" y="507" on="0"/>
        <pt x="483" y="571" on="0"/>
        <pt x="541" y="571" on="1"/>
        <pt x="534" y="493" on="1"/>
        <pt x="446" y="493" on="0"/>
        <pt x="442" y="419" on="1"/>
        <pt x="477" y="376" on="0"/>
        <pt x="477" y="316" on="1"/>
        <pt x="477" y="239" on="0"/>
        <pt x="366" y="140" on="0"/>
        <pt x="283" y="140" on="1"/>
        <pt x="226" y="140" on="0"/>
        <pt x="182" y="163" on="1"/>
        <pt x="162" y="159" on="0"/>
        <pt x="130" y="130" on="0"/>
        <pt x="130" y="105" on="1"/>
        <pt x="130" y="52" on="0"/>
        <pt x="218" y="52" on="1"/>
        <pt x="404" y="52" on="1"/>
        <pt x="471" y="52" on="0"/>
        <pt x="549" y="-5" on="0"/>
        <pt x="549" y="-56" on="1"/>
        <pt x="549" y="-132" on="0"/>
        <pt x="396" y="-246" on="0"/>
        <pt x="162" y="-246" on="0"/>
        <pt x="28" y="-159" on="0"/>
        <pt x="28" y="-93" on="1"/>
        <pt x="28" y="-50" on="0"/>
        <pt x="79" y="4" on="0"/>
      </contour>
      <contour>
        <pt x="106" y="-90" on="1"/>
        <pt x="106" y="-128" on="0"/>
        <pt x="189" y="-183" on="0"/>
        <pt x="358" y="-183" on="0"/>
        <pt x="471" y="-110" on="0"/>
        <pt x="471" y="-61" on="1"/>
        <pt x="471" y="-38" on="0"/>
        <pt x="438" y="-5" on="0"/>
        <pt x="404" y="-5" on="1"/>
        <pt x="211" y="-5" on="1"/>
        <pt x="160" y="-7" on="0"/>
        <pt x="106" y="-52" on="0"/>
      </contour>
      <contour>
        <pt x="400" y="368" on="0"/>
        <pt x="338" y="433" on="0"/>
        <pt x="229" y="433" on="0"/>
        <pt x="167" y="368" on="0"/>
        <pt x="167" y="316" on="1"/>
        <pt x="167" y="264" on="0"/>
        <pt x="230" y="197" on="0"/>
        <pt x="284" y="197" on="1"/>
        <pt x="338" y="197" on="0"/>
        <pt x="400" y="265" on="0"/>
      </contour>
    </TTGlyph>
    <TTGlyph name="grave" xMin="24" yMin="677" xMax="292" yMax="860">
      <contour>
        <pt x="57" y="860" on="1"/>
        <pt x="292" y="727" on="1"/>
        <pt x="269" y="677" on="1"/>
        <pt x="24" y="790" on="1"/>
      </contour>
    </TTGlyph>
    <TTGlyph name="greater" xMin="47" yMin="40" xMax="414" yMax="572">
      <contour>
        <pt x="98" y="572" on="1"/>
        <pt x="414" y="340" on="1"/>
        <pt x="414" y="271" on="1"/>
        <pt x="98" y="40" on="1"/>
        <pt x="47" y="101" on="1"/>
        <pt x="333" y="305" on="1"/>
        <pt x="47" y="512" on="1"/>
      </contour>
    </TTGlyph>
    <TTGlyph name="h" xMin="101" yMin="0" xMax="519" yMax="681">
      <contour>
        <pt x="180" y="390" on="1"/>
        <pt x="228" y="490" on="0"/>
        <pt x="339" y="490" on="1"/>
        <pt x="424" y="490" on="0"/>
        <pt x="519" y="378" on="0"/>
        <pt x="519" y="281" on="1"/>
        <pt x="519" y="0" on="1"/>
        <pt x="441" y="0" on="1"/>
        <pt x="441" y="281" on="1"/>
        <pt x="441" y="350" on="0"/>
        <pt x="376" y="420" on="0"/>
        <pt x="254" y="420" on="0"/>
        <pt x="180" y="317" on="0"/>
        <pt x="180" y="226" on="1"/>
        <pt x="180" y="0" on="1"/>
        <pt x="101" y="0" on="1"/>
        <pt x="101" y="681" on="1"/>
        <pt x="180" y="681" on="1"/>
      </contour>
    </TTGlyph>
    <TTGlyph name="hyphen" xMin="38" yMin="257" xMax="310" yMax="325">
      <contour>
        <pt x="38" y="325" on="1"/>
        <pt x="310" y="325" on="1"/>
        <pt x="310" y="257" on="1"/>
        <pt x="38" y="257" on="1"/>
      </contour>
    </TTGlyph>
    <TTGlyph name="i" xMin="94" yMin="0" xMax="198" yMax="690">
      <contour>
        <pt x="106" y="479" on="1"/>
        <pt x="185" y="479" on="1"/>
        <pt x="185" y="0" on="1"/>
        <pt x="106" y="0" on="1"/>
      </contour>
      <contour>
        <pt x="121" y="591" on="0"/>
        <pt x="94" y="618" on="0"/>
        <pt x="94" y="663" on="0"/>
        <pt x="121" y="690" on="0"/>
        <pt x="169" y="690" on="0"/>
        <pt x="198" y="663" on="0"/>
        <pt x="198" y="618" on="0"/>
        <pt x="169" y="591" on="0"/>
      </contour>
    </TTGlyph>
    <TTGlyph name="iacute" xMin="11" yMin="0" xMax="278" yMax="731">
      <contour>
        <pt x="106" y="0" on="1"/>
        <pt x="185" y="0" on="1"/>
        <pt x="185" y="479" on="1"/>
        <pt x="106" y="479" on="1"/>
      </contour>
      <contour>
        <pt x="278" y="661" on="1"/>
        <pt x="34" y="548" on="1"/>
        <pt x="11" y="598" on="1"/>
        <pt x="246" y="731" on="1"/>
      </contour>
    </TTGlyph>
    <TTGlyph name="icircumflex" xMin="-34" yMin="0" xMax="325" yMax="743">
      <contour>
        <pt x="106" y="479" on="1"/>
        <pt x="185" y="479" on="1"/>
        <pt x="185" y="0" on="1"/>
        <pt x="106" y="0" on="1"/>
      </contour>
      <contour>
        <pt x="325" y="587" on="1"/>
        <pt x="275" y="548" on="1"/>
        <pt x="146" y="656" on="1"/>
        <pt x="16" y="548" on="1"/>
        <pt x="-34" y="587" on="1"/>
        <pt x="146" y="743" on="1"/>
      </contour>
    </TTGlyph>
    <TTGlyph name="idieresis" xMin="9" yMin="0" xMax="283" yMax="705">
      <contour>
        <pt x="106" y="479" on="1"/>
        <pt x="185" y="479" on="1"/>
        <pt x="185" y="0" on="1"/>
        <pt x="106" y="0" on="1"/>
      </contour>
      <contour>
        <pt x="38" y="605" on="0"/>
        <pt x="9" y="634" on="0"/>
        <pt x="9" y="676" on="0"/>
        <pt x="38" y="705" on="0"/>
        <pt x="61" y="705" on="1"/>
        <pt x="84" y="705" on="0"/>
        <pt x="115" y="676" on="0"/>
        <pt x="115" y="634" on="0"/>
        <pt x="84" y="605" on="0"/>
        <pt x="61" y="605" on="1"/>
      </contour>
      <contour>
        <pt x="207" y="605" on="0"/>
        <pt x="177" y="634" on="0"/>
        <pt x="177" y="676" on="0"/>
        <pt x="207" y="705" on="0"/>
        <pt x="252" y="705" on="0"/>
        <pt x="283" y="676" on="0"/>
        <pt x="283" y="634" on="0"/>
        <pt x="252" y="605" on="0"/>
      </contour>
    </TTGlyph>
    <TTGlyph name="igrave" xMin="12" yMin="0" xMax="280" yMax="731">
      <contour>
        <pt x="106" y="479" on="1"/>
        <pt x="185" y="479" on="1"/>
        <pt x="185" y="0" on="1"/>
        <pt x="106" y="0" on="1"/>
      </contour>
      <contour>
        <pt x="45" y="731" on="1"/>
        <pt x="280" y="598" on="1"/>
        <pt x="257" y="548" on="1"/>
        <pt x="12" y="661" on="1"/>
      </contour>
    </TTGlyph>
    <TTGlyph name="j" xMin="-86" yMin="-246" xMax="213" yMax="690">
      <contour>
        <pt x="136" y="591" on="0"/>
        <pt x="109" y="618" on="0"/>
        <pt x="109" y="663" on="0"/>
        <pt x="136" y="690" on="0"/>
        <pt x="160" y="690" on="1"/>
        <pt x="184" y="690" on="0"/>
        <pt x="213" y="663" on="0"/>
        <pt x="213" y="618" on="0"/>
        <pt x="184" y="591" on="0"/>
        <pt x="160" y="591" on="1"/>
      </contour>
      <contour>
        <pt x="33" y="-177" on="1"/>
        <pt x="121" y="-177" on="0"/>
        <pt x="121" y="-67" on="1"/>
        <pt x="121" y="480" on="1"/>
        <pt x="200" y="480" on="1"/>
        <pt x="200" y="-67" on="1"/>
        <pt x="200" y="-204" on="0"/>
        <pt x="110" y="-236" on="1"/>
        <pt x="82" y="-246" on="0"/>
        <pt x="48" y="-246" on="1"/>
        <pt x="-14" y="-246" on="0"/>
        <pt x="-86" y="-209" on="1"/>
        <pt x="-82" y="-140" on="1"/>
        <pt x="-19" y="-177" on="0"/>
      </contour>
    </TTGlyph>
    <TTGlyph name="k" xMin="101" yMin="0" xMax="532" yMax="681">
      <contour>
        <pt x="244" y="253" on="1"/>
        <pt x="180" y="201" on="1"/>
        <pt x="180" y="0" on="1"/>
        <pt x="101" y="0" on="1"/>
        <pt x="101" y="681" on="1"/>
        <pt x="180" y="681" on="1"/>
        <pt x="180" y="285" on="1"/>
        <pt x="411" y="478" on="1"/>
        <pt x="521" y="478" on="1"/>
        <pt x="301" y="299" on="1"/>
        <pt x="532" y="0" on="1"/>
        <pt x="435" y="0" on="1"/>
      </contour>
    </TTGlyph>
    <TTGlyph name="l" xMin="101" yMin="0" xMax="180" yMax="681">
      <contour>
        <pt x="101" y="681" on="1"/>
        <pt x="180" y="681" on="1"/>
        <pt x="180" y="0" on="1"/>
        <pt x="101" y="0" on="1"/>
      </contour>
    </TTGlyph>
    <TTGlyph name="less" xMin="40" yMin="40" xMax="408" yMax="572">
      <contour>
        <pt x="408" y="512" on="1"/>
        <pt x="120" y="305" on="1"/>
        <pt x="408" y="101" on="1"/>
        <pt x="356" y="40" on="1"/>
        <pt x="40" y="271" on="1"/>
        <pt x="40" y="340" on="1"/>
        <pt x="356" y="572" on="1"/>
      </contour>
    </TTGlyph>
    <TTGlyph name="m" xMin="100" yMin="0" xMax="850" yMax="490">
      <contour>
        <pt x="177" y="386" on="1"/>
        <pt x="224" y="490" on="0"/>
        <pt x="338" y="490" on="1"/>
        <pt x="400" y="490" on="0"/>
        <pt x="484" y="429" on="0"/>
        <pt x="503" y="375" on="1"/>
        <pt x="548" y="490" on="0"/>
        <pt x="670" y="490" on="1"/>
        <pt x="756" y="490" on="0"/>
        <pt x="850" y="378" on="0"/>
        <pt x="850" y="281" on="1"/>
        <pt x="850" y="0" on="1"/>
        <pt x="772" y="0" on="1"/>
        <pt x="772" y="281" on="1"/>
        <pt x="772" y="350" on="0"/>
        <pt x="707" y="420" on="0"/>
        <pt x="585" y="420" on="0"/>
        <pt x="518" y="320" on="0"/>
        <pt x="518" y="232" on="1"/>
        <pt x="518" y="0" on="1"/>
        <pt x="440" y="0" on="1"/>
        <pt x="440" y="281" on="1"/>
        <pt x="440" y="350" on="0"/>
        <pt x="375" y="420" on="0"/>
        <pt x="255" y="420" on="0"/>
        <pt x="181" y="322" on="0"/>
        <pt x="179" y="235" on="1"/>
        <pt x="179" y="0" on="1"/>
        <pt x="100" y="0" on="1"/>
        <pt x="100" y="478" on="1"/>
        <pt x="168" y="478" on="1"/>
      </contour>
    </TTGlyph>
    <TTGlyph name="minus" xMin="79" yMin="258" xMax="409" yMax="325">
      <contour>
        <pt x="409" y="325" on="1"/>
        <pt x="409" y="258" on="1"/>
        <pt x="79" y="258" on="1"/>
        <pt x="79" y="325" on="1"/>
      </contour>
    </TTGlyph>
    <TTGlyph name="n" xMin="100" yMin="0" xMax="518" yMax="490">
      <contour>
        <pt x="177" y="386" on="1"/>
        <pt x="224" y="490" on="0"/>
        <pt x="338" y="490" on="1"/>
        <pt x="423" y="490" on="0"/>
        <pt x="518" y="378" on="0"/>
        <pt x="518" y="281" on="1"/>
        <pt x="518" y="0" on="1"/>
        <pt x="440" y="0" on="1"/>
        <pt x="440" y="281" on="1"/>
        <pt x="440" y="350" on="0"/>
        <pt x="375" y="420" on="0"/>
        <pt x="255" y="420" on="0"/>
        <pt x="181" y="322" on="0"/>
        <pt x="179" y="235" on="1"/>
        <pt x="179" y="0" on="1"/>
        <pt x="100" y="0" on="1"/>
        <pt x="100" y="478" on="1"/>
        <pt x="168" y="478" on="1"/>
      </contour>
    </TTGlyph>
    <TTGlyph name="nine" xMin="66" yMin="-11" xMax="530" yMax="640">
      <contour>
        <pt x="282" y="640" on="1"/>
        <pt x="333" y="640" on="0"/>
        <pt x="425" y="596" on="0"/>
        <pt x="458" y="555" on="1"/>
        <pt x="530" y="467" on="0"/>
        <pt x="530" y="326" on="1"/>
        <pt x="530" y="81" on="0"/>
        <pt x="394" y="12" on="1"/>
        <pt x="347" y="-11" on="0"/>
        <pt x="292" y="-11" on="1"/>
        <pt x="189" y="-11" on="0"/>
        <pt x="69" y="101" on="0"/>
        <pt x="69" y="186" on="1"/>
        <pt x="152" y="186" on="1"/>
        <pt x="154" y="129" on="0"/>
        <pt x="222" y="61" on="0"/>
        <pt x="326" y="61" on="0"/>
        <pt x="358" y="80" on="1"/>
        <pt x="449" y="137" on="0"/>
        <pt x="449" y="337" on="1"/>
        <pt x="449" y="378" on="0"/>
        <pt x="444" y="411" on="1"/>
        <pt x="434" y="330" on="0"/>
        <pt x="337" y="250" on="0"/>
        <pt x="180" y="250" on="0"/>
        <pt x="66" y="361" on="0"/>
        <pt x="66" y="447" on="1"/>
        <pt x="66" y="534" on="0"/>
        <pt x="184" y="640" on="0"/>
      </contour>
      <contour>
        <pt x="336" y="567" on="0"/>
        <pt x="222" y="567" on="0"/>
        <pt x="148" y="501" on="0"/>
        <pt x="148" y="443" on="1"/>
        <pt x="148" y="385" on="0"/>
        <pt x="223" y="319" on="0"/>
        <pt x="336" y="319" on="0"/>
        <pt x="411" y="390" on="0"/>
        <pt x="411" y="500" on="0"/>
      </contour>
    </TTGlyph>
    <TTGlyph name="nine.propold" xMin="66" yMin="-114" xMax="530" yMax="551">
      <contour>
        <pt x="286" y="551" on="1"/>
        <pt x="339" y="551" on="0"/>
        <pt x="432" y="500" on="0"/>
        <pt x="464" y="456" on="1"/>
        <pt x="530" y="367" on="0"/>
        <pt x="530" y="67" on="0"/>
        <pt x="400" y="-114" on="0"/>
        <pt x="281" y="-114" on="1"/>
        <pt x="188" y="-114" on="0"/>
        <pt x="70" y="-3" on="0"/>
        <pt x="70" y="83" on="1"/>
        <pt x="153" y="83" on="1"/>
        <pt x="155" y="26" on="0"/>
        <pt x="220" y="-42" on="0"/>
        <pt x="325" y="-42" on="0"/>
        <pt x="356" y="-22" on="1"/>
        <pt x="449" y="35" on="0"/>
        <pt x="449" y="238" on="1"/>
        <pt x="449" y="283" on="0"/>
        <pt x="444" y="318" on="1"/>
        <pt x="436" y="241" on="0"/>
        <pt x="342" y="156" on="0"/>
        <pt x="185" y="156" on="0"/>
        <pt x="66" y="268" on="0"/>
        <pt x="66" y="354" on="1"/>
        <pt x="66" y="441" on="0"/>
        <pt x="184" y="551" on="0"/>
      </contour>
      <contour>
        <pt x="279" y="481" on="1"/>
        <pt x="219" y="481" on="0"/>
        <pt x="148" y="412" on="0"/>
        <pt x="148" y="295" on="0"/>
        <pt x="220" y="226" on="0"/>
        <pt x="337" y="226" on="0"/>
        <pt x="411" y="300" on="0"/>
        <pt x="411" y="412" on="0"/>
        <pt x="339" y="481" on="0"/>
      </contour>
    </TTGlyph>
    <TTGlyph name="ntilde" xMin="101" yMin="0" xMax="519" yMax="713">
      <contour>
        <pt x="339" y="490" on="1"/>
        <pt x="225" y="490" on="0"/>
        <pt x="178" y="386" on="1"/>
        <pt x="169" y="478" on="1"/>
        <pt x="101" y="478" on="1"/>
        <pt x="101" y="0" on="1"/>
        <pt x="180" y="0" on="1"/>
        <pt x="180" y="235" on="1"/>
        <pt x="182" y="322" on="0"/>
        <pt x="256" y="420" on="0"/>
        <pt x="376" y="420" on="0"/>
        <pt x="441" y="350" on="0"/>
        <pt x="441" y="281" on="1"/>
        <pt x="441" y="0" on="1"/>
        <pt x="519" y="0" on="1"/>
        <pt x="519" y="281" on="1"/>
        <pt x="519" y="378" on="0"/>
        <pt x="424" y="490" on="0"/>
      </contour>
      <contour>
        <pt x="237" y="641" on="1"/>
        <pt x="205" y="641" on="0"/>
        <pt x="180" y="590" on="1"/>
        <pt x="148" y="609" on="1"/>
        <pt x="160" y="660" on="0"/>
        <pt x="206" y="713" on="0"/>
        <pt x="258" y="713" on="0"/>
        <pt x="292" y="696" on="1"/>
        <pt x="338" y="673" on="0"/>
        <pt x="365" y="661" on="0"/>
        <pt x="391" y="661" on="0"/>
        <pt x="419" y="686" on="0"/>
        <pt x="429" y="713" on="1"/>
        <pt x="464" y="690" on="1"/>
        <pt x="453" y="642" on="0"/>
        <pt x="404" y="590" on="0"/>
        <pt x="363" y="590" on="0"/>
        <pt x="329" y="602" on="0"/>
        <pt x="269" y="633" on="0"/>
        <pt x="248" y="641" on="0"/>
      </contour>
    </TTGlyph>
    <TTGlyph name="numbersign" xMin="53" yMin="31" xMax="586" yMax="593">
      <contour>
        <pt x="380" y="170" on="1"/>
        <pt x="226" y="170" on="1"/>
        <pt x="212" y="31" on="1"/>
        <pt x="138" y="31" on="1"/>
        <pt x="152" y="170" on="1"/>
        <pt x="53" y="170" on="1"/>
        <pt x="58" y="224" on="1"/>
        <pt x="158" y="224" on="1"/>
        <pt x="177" y="402" on="1"/>
        <pt x="76" y="402" on="1"/>
        <pt x="82" y="455" on="1"/>
        <pt x="182" y="455" on="1"/>
        <pt x="197" y="593" on="1"/>
        <pt x="271" y="593" on="1"/>
        <pt x="256" y="455" on="1"/>
        <pt x="410" y="455" on="1"/>
        <pt x="425" y="593" on="1"/>
        <pt x="498" y="593" on="1"/>
        <pt x="483" y="455" on="1"/>
        <pt x="586" y="455" on="1"/>
        <pt x="580" y="402" on="1"/>
        <pt x="478" y="402" on="1"/>
        <pt x="459" y="224" on="1"/>
        <pt x="562" y="224" on="1"/>
        <pt x="556" y="170" on="1"/>
        <pt x="453" y="170" on="1"/>
        <pt x="439" y="31" on="1"/>
        <pt x="365" y="31" on="1"/>
      </contour>
      <contour>
        <pt x="232" y="224" on="1"/>
        <pt x="385" y="224" on="1"/>
        <pt x="404" y="402" on="1"/>
        <pt x="251" y="402" on="1"/>
      </contour>
    </TTGlyph>
    <TTGlyph name="o" xMin="50" yMin="-11" xMax="496" yMax="490">
      <contour>
        <pt x="273" y="490" on="1"/>
        <pt x="373" y="490" on="0"/>
        <pt x="496" y="360" on="0"/>
        <pt x="496" y="239" on="1"/>
        <pt x="496" y="119" on="0"/>
        <pt x="373" y="-11" on="0"/>
        <pt x="273" y="-11" on="1"/>
        <pt x="173" y="-11" on="0"/>
        <pt x="50" y="119" on="0"/>
        <pt x="50" y="239" on="1"/>
        <pt x="50" y="360" on="0"/>
        <pt x="173" y="490" on="0"/>
      </contour>
      <contour>
        <pt x="416" y="325" on="0"/>
        <pt x="344" y="422" on="0"/>
        <pt x="205" y="422" on="0"/>
        <pt x="131" y="325" on="0"/>
        <pt x="131" y="154" on="0"/>
        <pt x="201" y="57" on="0"/>
        <pt x="340" y="57" on="0"/>
        <pt x="416" y="154" on="0"/>
      </contour>
    </TTGlyph>
    <TTGlyph name="oacute" xMin="51" yMin="-11" xMax="497" yMax="731">
      <contour>
        <pt x="274" y="490" on="1"/>
        <pt x="174" y="490" on="0"/>
        <pt x="51" y="360" on="0"/>
        <pt x="51" y="239" on="1"/>
        <pt x="51" y="119" on="0"/>
        <pt x="174" y="-11" on="0"/>
        <pt x="274" y="-11" on="1"/>
        <pt x="374" y="-11" on="0"/>
        <pt x="497" y="119" on="0"/>
        <pt x="497" y="239" on="1"/>
        <pt x="497" y="360" on="0"/>
        <pt x="374" y="490" on="0"/>
      </contour>
      <contour>
        <pt x="132" y="325" on="0"/>
        <pt x="206" y="422" on="0"/>
        <pt x="345" y="422" on="0"/>
        <pt x="417" y="325" on="0"/>
        <pt x="417" y="154" on="0"/>
        <pt x="341" y="57" on="0"/>
        <pt x="202" y="57" on="0"/>
        <pt x="132" y="154" on="0"/>
      </contour>
      <contour>
        <pt x="407" y="661" on="1"/>
        <pt x="163" y="548" on="1"/>
        <pt x="140" y="598" on="1"/>
        <pt x="375" y="731" on="1"/>
      </contour>
    </TTGlyph>
    <TTGlyph name="ocircumflex" xMin="51" yMin="-11" xMax="497" yMax="743">
      <contour>
        <pt x="274" y="490" on="1"/>
        <pt x="374" y="490" on="0"/>
        <pt x="497" y="360" on="0"/>
        <pt x="497" y="239" on="1"/>
        <pt x="497" y="119" on="0"/>
        <pt x="374" y="-11" on="0"/>
        <pt x="274" y="-11" on="1"/>
        <pt x="174" y="-11" on="0"/>
        <pt x="51" y="119" on="0"/>
        <pt x="51" y="239" on="1"/>
        <pt x="51" y="360" on="0"/>
        <pt x="174" y="490" on="0"/>
      </contour>
      <contour>
        <pt x="417" y="325" on="0"/>
        <pt x="345" y="422" on="0"/>
        <pt x="206" y="422" on="0"/>
        <pt x="132" y="325" on="0"/>
        <pt x="132" y="154" on="0"/>
        <pt x="202" y="57" on="0"/>
        <pt x="341" y="57" on="0"/>
        <pt x="417" y="154" on="0"/>
      </contour>
      <contour>
        <pt x="453" y="587" on="1"/>
        <pt x="403" y="548" on="1"/>
        <pt x="274" y="656" on="1"/>
        <pt x="144" y="548" on="1"/>
        <pt x="94" y="587" on="1"/>
        <pt x="274" y="743" on="1"/>
      </contour>
    </TTGlyph>
    <TTGlyph name="odieresis" xMin="51" yMin="-11" xMax="497" yMax="705">
      <contour>
        <pt x="274" y="490" on="1"/>
        <pt x="374" y="490" on="0"/>
        <pt x="497" y="360" on="0"/>
        <pt x="497" y="239" on="1"/>
        <pt x="497" y="119" on="0"/>
        <pt x="374" y="-11" on="0"/>
        <pt x="274" y="-11" on="1"/>
        <pt x="174" y="-11" on="0"/>
        <pt x="51" y="119" on="0"/>
        <pt x="51" y="239" on="1"/>
        <pt x="51" y="360" on="0"/>
        <pt x="174" y="490" on="0"/>
      </contour>
      <contour>
        <pt x="417" y="325" on="0"/>
        <pt x="345" y="422" on="0"/>
        <pt x="206" y="422" on="0"/>
        <pt x="132" y="325" on="0"/>
        <pt x="132" y="154" on="0"/>
        <pt x="202" y="57" on="0"/>
        <pt x="341" y="57" on="0"/>
        <pt x="417" y="154" on="0"/>
      </contour>
      <contour>
        <pt x="167" y="605" on="0"/>
        <pt x="138" y="634" on="0"/>
        <pt x="138" y="676" on="0"/>
        <pt x="167" y="705" on="0"/>
        <pt x="190" y="705" on="1"/>
        <pt x="213" y="705" on="0"/>
        <pt x="244" y="676" on="0"/>
        <pt x="244" y="634" on="0"/>
        <pt x="213" y="605" on="0"/>
        <pt x="190" y="605" on="1"/>
      </contour>
      <contour>
        <pt x="336" y="605" on="0"/>
        <pt x="306" y="634" on="0"/>
        <pt x="306" y="676" on="0"/>
        <pt x="336" y="705" on="0"/>
        <pt x="381" y="705" on="0"/>
        <pt x="412" y="676" on="0"/>
        <pt x="412" y="634" on="0"/>
        <pt x="381" y="605" on="0"/>
      </contour>
    </TTGlyph>
    <TTGlyph name="ograve" xMin="51" yMin="-11" xMax="497" yMax="731">
      <contour>
        <pt x="274" y="490" on="1"/>
        <pt x="374" y="490" on="0"/>
        <pt x="497" y="360" on="0"/>
        <pt x="497" y="239" on="1"/>
        <pt x="497" y="119" on="0"/>
        <pt x="374" y="-11" on="0"/>
        <pt x="274" y="-11" on="1"/>
        <pt x="174" y="-11" on="0"/>
        <pt x="51" y="119" on="0"/>
        <pt x="51" y="239" on="1"/>
        <pt x="51" y="360" on="0"/>
        <pt x="174" y="490" on="0"/>
      </contour>
      <contour>
        <pt x="417" y="325" on="0"/>
        <pt x="345" y="422" on="0"/>
        <pt x="206" y="422" on="0"/>
        <pt x="132" y="325" on="0"/>
        <pt x="132" y="154" on="0"/>
        <pt x="202" y="57" on="0"/>
        <pt x="341" y="57" on="0"/>
        <pt x="417" y="154" on="0"/>
      </contour>
      <contour>
        <pt x="174" y="731" on="1"/>
        <pt x="409" y="598" on="1"/>
        <pt x="386" y="548" on="1"/>
        <pt x="141" y="661" on="1"/>
      </contour>
    </TTGlyph>
    <TTGlyph name="one" xMin="49" yMin="0" xMax="230" yMax="631">
      <contour>
        <pt x="49" y="580" on="1"/>
        <pt x="116" y="589" on="0"/>
        <pt x="166" y="631" on="1"/>
        <pt x="230" y="631" on="1"/>
        <pt x="230" y="0" on="1"/>
        <pt x="152" y="0" on="1"/>
        <pt x="152" y="537" on="1"/>
        <pt x="102" y="505" on="0"/>
        <pt x="49" y="502" on="1"/>
      </contour>
    </TTGlyph>
    <TTGlyph name="one.propold" xMin="49" yMin="0" xMax="230" yMax="541">
      <contour>
        <pt x="49" y="489" on="1"/>
        <pt x="118" y="500" on="0"/>
        <pt x="166" y="541" on="1"/>
        <pt x="230" y="541" on="1"/>
        <pt x="230" y="0" on="1"/>
        <pt x="152" y="0" on="1"/>
        <pt x="152" y="446" on="1"/>
        <pt x="101" y="414" on="0"/>
        <pt x="49" y="412" on="1"/>
      </contour>
    </TTGlyph>
    <TTGlyph name="otilde" xMin="51" yMin="-11" xMax="497" yMax="713">
      <contour>
        <pt x="274" y="490" on="1"/>
        <pt x="174" y="490" on="0"/>
        <pt x="51" y="360" on="0"/>
        <pt x="51" y="239" on="1"/>
        <pt x="51" y="119" on="0"/>
        <pt x="174" y="-11" on="0"/>
        <pt x="274" y="-11" on="1"/>
        <pt x="374" y="-11" on="0"/>
        <pt x="497" y="119" on="0"/>
        <pt x="497" y="239" on="1"/>
        <pt x="497" y="360" on="0"/>
        <pt x="374" y="490" on="0"/>
      </contour>
      <contour>
        <pt x="132" y="325" on="0"/>
        <pt x="206" y="422" on="0"/>
        <pt x="345" y="422" on="0"/>
        <pt x="417" y="325" on="0"/>
        <pt x="417" y="154" on="0"/>
        <pt x="341" y="57" on="0"/>
        <pt x="202" y="57" on="0"/>
        <pt x="132" y="154" on="0"/>
      </contour>
      <contour>
        <pt x="206" y="641" on="1"/>
        <pt x="174" y="641" on="0"/>
        <pt x="149" y="590" on="1"/>
        <pt x="117" y="609" on="1"/>
        <pt x="129" y="660" on="0"/>
        <pt x="175" y="713" on="0"/>
        <pt x="227" y="713" on="0"/>
        <pt x="260" y="696" on="1"/>
        <pt x="307" y="673" on="0"/>
        <pt x="334" y="661" on="0"/>
        <pt x="360" y="661" on="0"/>
        <pt x="388" y="686" on="0"/>
        <pt x="398" y="713" on="1"/>
        <pt x="433" y="690" on="1"/>
        <pt x="422" y="642" on="0"/>
        <pt x="373" y="590" on="0"/>
        <pt x="332" y="590" on="0"/>
        <pt x="298" y="602" on="0"/>
        <pt x="238" y="633" on="0"/>
        <pt x="217" y="641" on="0"/>
      </contour>
    </TTGlyph>
    <TTGlyph name="p" xMin="101" yMin="-235" xMax="534" yMax="490">
      <contour>
        <pt x="175" y="405" on="1"/>
        <pt x="222" y="490" on="0"/>
        <pt x="409" y="490" on="0"/>
        <pt x="534" y="352" on="0"/>
        <pt x="534" y="126" on="0"/>
        <pt x="408" y="-11" on="0"/>
        <pt x="224" y="-11" on="0"/>
        <pt x="180" y="58" on="1"/>
        <pt x="180" y="-235" on="1"/>
        <pt x="101" y="-235" on="1"/>
        <pt x="101" y="478" on="1"/>
        <pt x="166" y="478" on="1"/>
      </contour>
      <contour>
        <pt x="368" y="59" on="0"/>
        <pt x="453" y="155" on="0"/>
        <pt x="453" y="322" on="0"/>
        <pt x="372" y="420" on="0"/>
        <pt x="256" y="420" on="0"/>
        <pt x="182" y="347" on="0"/>
        <pt x="180" y="285" on="1"/>
        <pt x="180" y="194" on="1"/>
        <pt x="180" y="131" on="0"/>
        <pt x="256" y="59" on="0"/>
      </contour>
    </TTGlyph>
    <TTGlyph name="parenleft" xMin="73" yMin="-113" xMax="328" yMax="728">
      <contour>
        <pt x="155" y="512" on="0"/>
        <pt x="155" y="102" on="0"/>
        <pt x="328" y="-73" on="1"/>
        <pt x="271" y="-113" on="1"/>
        <pt x="173" y="-24" on="0"/>
        <pt x="73" y="192" on="0"/>
        <pt x="73" y="423" on="0"/>
        <pt x="173" y="638" on="0"/>
        <pt x="271" y="728" on="1"/>
        <pt x="328" y="687" on="1"/>
      </contour>
    </TTGlyph>
    <TTGlyph name="parenright" xMin="28" yMin="-113" xMax="283" yMax="728">
      <contour>
        <pt x="201" y="102" on="0"/>
        <pt x="201" y="512" on="0"/>
        <pt x="28" y="687" on="1"/>
        <pt x="85" y="728" on="1"/>
        <pt x="183" y="638" on="0"/>
        <pt x="283" y="423" on="0"/>
        <pt x="283" y="192" on="0"/>
        <pt x="183" y="-24" on="0"/>
        <pt x="85" y="-113" on="1"/>
        <pt x="28" y="-73" on="1"/>
      </contour>
    </TTGlyph>
    <TTGlyph name="percent" xMin="61" yMin="-11" xMax="667" yMax="640">
      <contour>
        <pt x="241" y="640" on="0"/>
        <pt x="317" y="564" on="0"/>
        <pt x="317" y="496" on="1"/>
        <pt x="317" y="428" on="0"/>
        <pt x="242" y="353" on="0"/>
        <pt x="134" y="353" on="0"/>
        <pt x="61" y="429" on="0"/>
        <pt x="61" y="496" on="1"/>
        <pt x="61" y="563" on="0"/>
        <pt x="135" y="640" on="0"/>
      </contour>
      <contour>
        <pt x="253" y="543" on="0"/>
        <pt x="217" y="587" on="0"/>
        <pt x="159" y="587" on="0"/>
        <pt x="123" y="543" on="0"/>
        <pt x="123" y="496" on="1"/>
        <pt x="123" y="449" on="0"/>
        <pt x="159" y="407" on="0"/>
        <pt x="217" y="407" on="0"/>
        <pt x="253" y="449" on="0"/>
        <pt x="253" y="496" on="1"/>
      </contour>
      <contour>
        <pt x="534" y="629" on="1"/>
        <pt x="616" y="629" on="1"/>
        <pt x="193" y="0" on="1"/>
        <pt x="112" y="0" on="1"/>
      </contour>
      <contour>
        <pt x="538" y="276" on="1"/>
        <pt x="592" y="276" on="0"/>
        <pt x="667" y="201" on="0"/>
        <pt x="667" y="64" on="0"/>
        <pt x="592" y="-11" on="0"/>
        <pt x="538" y="-11" on="1"/>
        <pt x="484" y="-11" on="0"/>
        <pt x="411" y="65" on="0"/>
        <pt x="411" y="200" on="0"/>
        <pt x="484" y="276" on="0"/>
      </contour>
      <contour>
        <pt x="538" y="223" on="1"/>
        <pt x="509" y="223" on="0"/>
        <pt x="473" y="179" on="0"/>
        <pt x="473" y="132" on="1"/>
        <pt x="473" y="85" on="0"/>
        <pt x="509" y="43" on="0"/>
        <pt x="538" y="43" on="1"/>
        <pt x="567" y="43" on="0"/>
        <pt x="603" y="85" on="0"/>
        <pt x="603" y="132" on="1"/>
        <pt x="603" y="179" on="0"/>
        <pt x="567" y="223" on="0"/>
      </contour>
    </TTGlyph>
    <TTGlyph name="period" xMin="30" yMin="-9" xMax="148" yMax="104">
      <contour>
        <pt x="63" y="-9" on="0"/>
        <pt x="30" y="24" on="0"/>
        <pt x="30" y="71" on="0"/>
        <pt x="63" y="104" on="0"/>
        <pt x="114" y="104" on="0"/>
        <pt x="148" y="71" on="0"/>
        <pt x="148" y="24" on="0"/>
        <pt x="114" y="-9" on="0"/>
      </contour>
    </TTGlyph>
    <TTGlyph name="plus" xMin="18" yMin="0" xMax="509" yMax="491">
      <contour>
        <pt x="303" y="491" on="1"/>
        <pt x="303" y="279" on="1"/>
        <pt x="509" y="279" on="1"/>
        <pt x="509" y="212" on="1"/>
        <pt x="303" y="212" on="1"/>
        <pt x="303" y="0" on="1"/>
        <pt x="224" y="0" on="1"/>
        <pt x="224" y="212" on="1"/>
        <pt x="18" y="212" on="1"/>
        <pt x="18" y="279" on="1"/>
        <pt x="224" y="279" on="1"/>
        <pt x="224" y="491" on="1"/>
      </contour>
    </TTGlyph>
    <TTGlyph name="q" xMin="51" yMin="-246" xMax="556" yMax="490">
      <contour>
        <pt x="264" y="490" on="1"/>
        <pt x="366" y="490" on="0"/>
        <pt x="412" y="400" on="1"/>
        <pt x="429" y="478" on="1"/>
        <pt x="483" y="478" on="1"/>
        <pt x="483" y="-81" on="1"/>
        <pt x="483" y="-130" on="0"/>
        <pt x="506" y="-163" on="0"/>
        <pt x="535" y="-178" on="0"/>
        <pt x="556" y="-185" on="1"/>
        <pt x="530" y="-246" on="1"/>
        <pt x="462" y="-228" on="0"/>
        <pt x="405" y="-150" on="0"/>
        <pt x="405" y="-76" on="1"/>
        <pt x="405" y="76" on="1"/>
        <pt x="364" y="-11" on="0"/>
        <pt x="177" y="-11" on="0"/>
        <pt x="51" y="126" on="0"/>
        <pt x="51" y="352" on="0"/>
        <pt x="176" y="490" on="0"/>
      </contour>
      <contour>
        <pt x="213" y="420" on="0"/>
        <pt x="132" y="322" on="0"/>
        <pt x="132" y="155" on="0"/>
        <pt x="218" y="59" on="0"/>
        <pt x="275" y="59" on="1"/>
        <pt x="357" y="59" on="0"/>
        <pt x="392" y="132" on="1"/>
        <pt x="404" y="155" on="0"/>
        <pt x="405" y="187" on="1"/>
        <pt x="405" y="278" on="1"/>
        <pt x="405" y="344" on="0"/>
        <pt x="329" y="420" on="0"/>
      </contour>
    </TTGlyph>
    <TTGlyph name="question" xMin="30" yMin="-11" xMax="453" yMax="640">
      <contour>
        <pt x="248" y="568" on="1"/>
        <pt x="131" y="568" on="0"/>
        <pt x="114" y="476" on="1"/>
        <pt x="30" y="476" on="1"/>
        <pt x="37" y="550" on="0"/>
        <pt x="145" y="640" on="0"/>
        <pt x="340" y="640" on="0"/>
        <pt x="453" y="544" on="0"/>
        <pt x="453" y="475" on="1"/>
        <pt x="453" y="423" on="0"/>
        <pt x="401" y="354" on="0"/>
        <pt x="343" y="322" on="1"/>
        <pt x="318" y="308" on="0"/>
        <pt x="284" y="286" on="0"/>
        <pt x="274" y="272" on="1"/>
        <pt x="255" y="247" on="0"/>
        <pt x="255" y="200" on="1"/>
        <pt x="255" y="161" on="1"/>
        <pt x="177" y="161" on="1"/>
        <pt x="177" y="206" on="1"/>
        <pt x="177" y="269" on="0"/>
        <pt x="219" y="336" on="0"/>
        <pt x="329" y="396" on="0"/>
        <pt x="367" y="441" on="0"/>
        <pt x="367" y="517" on="0"/>
        <pt x="304" y="568" on="0"/>
      </contour>
      <contour>
        <pt x="217" y="102" on="1"/>
        <pt x="243" y="102" on="0"/>
        <pt x="277" y="68" on="0"/>
        <pt x="277" y="21" on="0"/>
        <pt x="243" y="-11" on="0"/>
        <pt x="217" y="-11" on="1"/>
        <pt x="191" y="-11" on="0"/>
        <pt x="159" y="21" on="0"/>
        <pt x="159" y="68" on="0"/>
        <pt x="191" y="102" on="0"/>
      </contour>
    </TTGlyph>
    <TTGlyph name="quotedbl" xMin="28" yMin="461" xMax="278" yMax="681">
      <contour>
        <pt x="110" y="681" on="1"/>
        <pt x="99" y="461" on="1"/>
        <pt x="39" y="461" on="1"/>
        <pt x="28" y="681" on="1"/>
      </contour>
      <contour>
        <pt x="278" y="681" on="1"/>
        <pt x="267" y="461" on="1"/>
        <pt x="207" y="461" on="1"/>
        <pt x="196" y="681" on="1"/>
      </contour>
    </TTGlyph>
    <TTGlyph name="quoteleft" xMin="36" yMin="418" xMax="184" yMax="626">
      <contour>
        <pt x="162" y="449" on="0"/>
        <pt x="131" y="418" on="0"/>
        <pt x="75" y="418" on="0"/>
        <pt x="36" y="464" on="0"/>
        <pt x="36" y="533" on="0"/>
        <pt x="83" y="604" on="0"/>
        <pt x="128" y="626" on="1"/>
        <pt x="184" y="597" on="1"/>
        <pt x="122" y="565" on="0"/>
        <pt x="109" y="521" on="1"/>
        <pt x="132" y="519" on="0"/>
        <pt x="162" y="493" on="0"/>
        <pt x="162" y="471" on="1"/>
      </contour>
    </TTGlyph>
    <TTGlyph name="quoteright" xMin="15" yMin="418" xMax="162" yMax="626">
      <contour>
        <pt x="36" y="596" on="0"/>
        <pt x="68" y="626" on="0"/>
        <pt x="125" y="626" on="0"/>
        <pt x="162" y="582" on="0"/>
        <pt x="162" y="547" on="1"/>
        <pt x="162" y="512" on="0"/>
        <pt x="115" y="441" on="0"/>
        <pt x="71" y="418" on="1"/>
        <pt x="15" y="448" on="1"/>
        <pt x="77" y="480" on="0"/>
        <pt x="90" y="524" on="1"/>
        <pt x="67" y="526" on="0"/>
        <pt x="36" y="552" on="0"/>
        <pt x="36" y="574" on="1"/>
      </contour>
    </TTGlyph>
    <TTGlyph name="quotesingle" xMin="27" yMin="457" xMax="109" yMax="677">
      <contour>
        <pt x="109" y="677" on="1"/>
        <pt x="98" y="457" on="1"/>
        <pt x="38" y="457" on="1"/>
        <pt x="27" y="677" on="1"/>
      </contour>
    </TTGlyph>
    <TTGlyph name="r" xMin="100" yMin="0" xMax="361" yMax="487">
      <contour>
        <pt x="296" y="411" on="1"/>
        <pt x="183" y="411" on="0"/>
        <pt x="179" y="233" on="1"/>
        <pt x="179" y="0" on="1"/>
        <pt x="100" y="0" on="1"/>
        <pt x="100" y="479" on="1"/>
        <pt x="179" y="479" on="1"/>
        <pt x="179" y="387" on="1"/>
        <pt x="215" y="487" on="0"/>
        <pt x="306" y="487" on="1"/>
        <pt x="335" y="487" on="0"/>
        <pt x="361" y="478" on="1"/>
        <pt x="357" y="401" on="1"/>
        <pt x="327" y="411" on="0"/>
      </contour>
    </TTGlyph>
    <TTGlyph name="rupeesymbol" xMin="92" yMin="0" xMax="508" yMax="629">
      <contour>
        <pt x="92" y="629" on="1"/>
        <pt x="508" y="629" on="1"/>
        <pt x="508" y="580" on="1"/>
        <pt x="325" y="580" on="1"/>
        <pt x="394" y="544" on="0"/>
        <pt x="409" y="477" on="1"/>
        <pt x="508" y="477" on="1"/>
        <pt x="508" y="429" on="1"/>
        <pt x="414" y="429" on="1"/>
        <pt x="407" y="314" on="0"/>
        <pt x="295" y="270" on="1"/>
        <pt x="255" y="255" on="0"/>
        <pt x="200" y="250" on="1"/>
        <pt x="474" y="0" on="1"/>
        <pt x="362" y="0" on="1"/>
        <pt x="92" y="248" on="1"/>
        <pt x="92" y="296" on="1"/>
        <pt x="153" y="296" on="1"/>
        <pt x="240" y="296" on="0"/>
        <pt x="324" y="372" on="0"/>
        <pt x="327" y="429" on="1"/>
        <pt x="92" y="429" on="1"/>
        <pt x="92" y="477" on="1"/>
        <pt x="323" y="477" on="1"/>
        <pt x="312" y="523" on="0"/>
        <pt x="229" y="580" on="0"/>
        <pt x="153" y="580" on="1"/>
        <pt x="92" y="580" on="1"/>
      </contour>
    </TTGlyph>
    <TTGlyph name="s" xMin="60" yMin="-11" xMax="465" yMax="490">
      <contour>
        <pt x="76" y="420" on="0"/>
        <pt x="177" y="490" on="0"/>
        <pt x="349" y="490" on="0"/>
        <pt x="446" y="418" on="0"/>
        <pt x="448" y="363" on="1"/>
        <pt x="371" y="363" on="1"/>
        <pt x="362" y="428" on="0"/>
        <pt x="261" y="428" on="1"/>
        <pt x="212" y="428" on="0"/>
        <pt x="159" y="384" on="0"/>
        <pt x="159" y="333" on="0"/>
        <pt x="199" y="298" on="0"/>
        <pt x="243" y="285" on="1"/>
        <pt x="339" y="253" on="1"/>
        <pt x="400" y="234" on="0"/>
        <pt x="465" y="175" on="0"/>
        <pt x="465" y="72" on="0"/>
        <pt x="359" y="-11" on="0"/>
        <pt x="169" y="-11" on="0"/>
        <pt x="63" y="74" on="0"/>
        <pt x="60" y="141" on="1"/>
        <pt x="136" y="141" on="1"/>
        <pt x="138" y="96" on="0"/>
        <pt x="207" y="51" on="0"/>
        <pt x="311" y="51" on="0"/>
        <pt x="379" y="95" on="0"/>
        <pt x="379" y="156" on="0"/>
        <pt x="339" y="188" on="0"/>
        <pt x="294" y="200" on="1"/>
        <pt x="201" y="231" on="1"/>
        <pt x="76" y="268" on="0"/>
        <pt x="76" y="361" on="1"/>
      </contour>
    </TTGlyph>
    <TTGlyph name="semicolon" xMin="57" yMin="-109" xMax="205" yMax="442">
      <contour>
        <pt x="109" y="-3" on="0"/>
        <pt x="79" y="23" on="0"/>
        <pt x="79" y="67" on="0"/>
        <pt x="110" y="97" on="0"/>
        <pt x="167" y="97" on="0"/>
        <pt x="205" y="52" on="0"/>
        <pt x="205" y="-16" on="0"/>
        <pt x="161" y="-87" on="0"/>
        <pt x="116" y="-109" on="1"/>
        <pt x="57" y="-80" on="1"/>
        <pt x="119" y="-50" on="0"/>
        <pt x="132" y="-5" on="1"/>
      </contour>
      <contour>
        <pt x="115" y="329" on="0"/>
        <pt x="82" y="362" on="0"/>
        <pt x="82" y="409" on="0"/>
        <pt x="115" y="442" on="0"/>
        <pt x="166" y="442" on="0"/>
        <pt x="200" y="409" on="0"/>
        <pt x="200" y="362" on="0"/>
        <pt x="166" y="329" on="0"/>
      </contour>
    </TTGlyph>
    <TTGlyph name="seven" xMin="24" yMin="0" xMax="452" yMax="629">
      <contour>
        <pt x="452" y="629" on="1"/>
        <pt x="452" y="556" on="1"/>
        <pt x="164" y="0" on="1"/>
        <pt x="58" y="0" on="1"/>
        <pt x="360" y="553" on="1"/>
        <pt x="24" y="553" on="1"/>
        <pt x="24" y="629" on="1"/>
      </contour>
    </TTGlyph>
    <TTGlyph name="seven.propold" xMin="24" yMin="-98" xMax="452" yMax="551">
      <contour>
        <pt x="452" y="551" on="1"/>
        <pt x="452" y="484" on="1"/>
        <pt x="152" y="-98" on="1"/>
        <pt x="55" y="-98" on="1"/>
        <pt x="369" y="481" on="1"/>
        <pt x="24" y="481" on="1"/>
        <pt x="24" y="551" on="1"/>
      </contour>
    </TTGlyph>
    <TTGlyph name="six" xMin="51" yMin="-12" xMax="515" yMax="640">
      <contour>
        <pt x="425" y="470" on="1"/>
        <pt x="408" y="568" on="0"/>
        <pt x="228" y="568" on="0"/>
        <pt x="131" y="420" on="0"/>
        <pt x="131" y="292" on="1"/>
        <pt x="131" y="239" on="0"/>
        <pt x="136" y="204" on="1"/>
        <pt x="142" y="296" on="0"/>
        <pt x="243" y="379" on="0"/>
        <pt x="401" y="379" on="0"/>
        <pt x="515" y="268" on="0"/>
        <pt x="515" y="95" on="0"/>
        <pt x="397" y="-12" on="0"/>
        <pt x="301" y="-12" on="1"/>
        <pt x="189" y="-12" on="0"/>
        <pt x="51" y="168" on="0"/>
        <pt x="51" y="461" on="0"/>
        <pt x="191" y="640" on="0"/>
        <pt x="312" y="640" on="1"/>
        <pt x="396" y="640" on="0"/>
        <pt x="502" y="546" on="0"/>
        <pt x="510" y="470" on="1"/>
      </contour>
      <contour>
        <pt x="245" y="309" on="0"/>
        <pt x="170" y="238" on="0"/>
        <pt x="170" y="128" on="0"/>
        <pt x="244" y="61" on="0"/>
        <pt x="358" y="61" on="0"/>
        <pt x="433" y="127" on="0"/>
        <pt x="433" y="185" on="1"/>
        <pt x="433" y="243" on="0"/>
        <pt x="358" y="309" on="0"/>
      </contour>
    </TTGlyph>
    <TTGlyph name="six.propold" xMin="51" yMin="-12" xMax="515" yMax="640">
      <contour>
        <pt x="425" y="470" on="1"/>
        <pt x="408" y="568" on="0"/>
        <pt x="228" y="568" on="0"/>
        <pt x="131" y="420" on="0"/>
        <pt x="131" y="292" on="1"/>
        <pt x="131" y="239" on="0"/>
        <pt x="136" y="204" on="1"/>
        <pt x="142" y="296" on="0"/>
        <pt x="243" y="379" on="0"/>
        <pt x="401" y="379" on="0"/>
        <pt x="515" y="268" on="0"/>
        <pt x="515" y="95" on="0"/>
        <pt x="397" y="-12" on="0"/>
        <pt x="301" y="-12" on="1"/>
        <pt x="189" y="-12" on="0"/>
        <pt x="51" y="168" on="0"/>
        <pt x="51" y="461" on="0"/>
        <pt x="191" y="640" on="0"/>
        <pt x="312" y="640" on="1"/>
        <pt x="396" y="640" on="0"/>
        <pt x="502" y="546" on="0"/>
        <pt x="510" y="470" on="1"/>
      </contour>
      <contour>
        <pt x="245" y="309" on="0"/>
        <pt x="170" y="238" on="0"/>
        <pt x="170" y="128" on="0"/>
        <pt x="244" y="61" on="0"/>
        <pt x="358" y="61" on="0"/>
        <pt x="433" y="127" on="0"/>
        <pt x="433" y="185" on="1"/>
        <pt x="433" y="243" on="0"/>
        <pt x="358" y="309" on="0"/>
      </contour>
    </TTGlyph>
    <TTGlyph name="slash" xMin="57" yMin="-73" xMax="388" yMax="731">
      <contour>
        <pt x="308" y="731" on="1"/>
        <pt x="388" y="731" on="1"/>
        <pt x="136" y="-73" on="1"/>
        <pt x="57" y="-73" on="1"/>
      </contour>
    </TTGlyph>
    <TTGlyph name="sterling" xMin="20" yMin="0" xMax="529" yMax="640">
      <contour>
        <pt x="400" y="490" on="1"/>
        <pt x="384" y="568" on="0"/>
        <pt x="298" y="568" on="1"/>
        <pt x="256" y="568" on="0"/>
        <pt x="199" y="504" on="0"/>
        <pt x="199" y="432" on="1"/>
        <pt x="199" y="323" on="1"/>
        <pt x="381" y="323" on="1"/>
        <pt x="381" y="267" on="1"/>
        <pt x="199" y="267" on="1"/>
        <pt x="199" y="163" on="1"/>
        <pt x="199" y="95" on="0"/>
        <pt x="162" y="69" on="1"/>
        <pt x="345" y="69" on="1"/>
        <pt x="394" y="69" on="0"/>
        <pt x="439" y="110" on="0"/>
        <pt x="445" y="154" on="1"/>
        <pt x="529" y="154" on="1"/>
        <pt x="523" y="77" on="0"/>
        <pt x="439" y="0" on="0"/>
        <pt x="345" y="0" on="1"/>
        <pt x="20" y="0" on="1"/>
        <pt x="20" y="69" on="1"/>
        <pt x="48" y="69" on="1"/>
        <pt x="86" y="69" on="0"/>
        <pt x="121" y="113" on="0"/>
        <pt x="121" y="159" on="1"/>
        <pt x="121" y="267" on="1"/>
        <pt x="30" y="267" on="1"/>
        <pt x="30" y="323" on="1"/>
        <pt x="121" y="323" on="1"/>
        <pt x="121" y="432" on="1"/>
        <pt x="121" y="531" on="0"/>
        <pt x="214" y="640" on="0"/>
        <pt x="305" y="640" on="1"/>
        <pt x="376" y="640" on="0"/>
        <pt x="466" y="564" on="0"/>
        <pt x="477" y="490" on="1"/>
      </contour>
    </TTGlyph>
    <TTGlyph name="t" xMin="34" yMin="-26" xMax="351" yMax="611">
      <contour>
        <pt x="351" y="14" on="1"/>
        <pt x="265" y="-26" on="0"/>
        <pt x="194" y="-3" on="1"/>
        <pt x="143" y="13" on="0"/>
        <pt x="122" y="64" on="1"/>
        <pt x="111" y="89" on="0"/>
        <pt x="111" y="124" on="1"/>
        <pt x="111" y="418" on="1"/>
        <pt x="34" y="418" on="1"/>
        <pt x="34" y="478" on="1"/>
        <pt x="111" y="478" on="1"/>
        <pt x="111" y="611" on="1"/>
        <pt x="189" y="611" on="1"/>
        <pt x="189" y="478" on="1"/>
        <pt x="339" y="478" on="1"/>
        <pt x="339" y="418" on="1"/>
        <pt x="189" y="418" on="1"/>
        <pt x="189" y="125" on="1"/>
        <pt x="189" y="52" on="0"/>
        <pt x="257" y="52" on="1"/>
        <pt x="294" y="52" on="0"/>
        <pt x="340" y="70" on="1"/>
      </contour>
    </TTGlyph>
    <TTGlyph name="three" xMin="52" yMin="-11" xMax="529" yMax="640">
      <contour>
        <pt x="505" y="468" on="1"/>
        <pt x="505" y="368" on="0"/>
        <pt x="395" y="329" on="1"/>
        <pt x="455" y="312" on="0"/>
        <pt x="529" y="234" on="0"/>
        <pt x="529" y="173" on="1"/>
        <pt x="529" y="90" on="0"/>
        <pt x="403" y="-11" on="0"/>
        <pt x="197" y="-11" on="0"/>
        <pt x="52" y="96" on="0"/>
        <pt x="52" y="193" on="1"/>
        <pt x="134" y="193" on="1"/>
        <pt x="136" y="129" on="0"/>
        <pt x="227" y="61" on="0"/>
        <pt x="367" y="61" on="0"/>
        <pt x="444" y="128" on="0"/>
        <pt x="444" y="227" on="0"/>
        <pt x="370" y="290" on="0"/>
        <pt x="287" y="290" on="1"/>
        <pt x="215" y="290" on="1"/>
        <pt x="215" y="353" on="1"/>
        <pt x="264" y="353" on="1"/>
        <pt x="336" y="353" on="0"/>
        <pt x="420" y="410" on="0"/>
        <pt x="420" y="506" on="0"/>
        <pt x="352" y="568" on="0"/>
        <pt x="240" y="568" on="0"/>
        <pt x="165" y="529" on="0"/>
        <pt x="152" y="476" on="1"/>
        <pt x="70" y="476" on="1"/>
        <pt x="81" y="559" on="0"/>
        <pt x="197" y="640" on="0"/>
        <pt x="380" y="640" on="0"/>
        <pt x="505" y="543" on="0"/>
      </contour>
    </TTGlyph>
    <TTGlyph name="three.propold" xMin="28" yMin="-114" xMax="493" yMax="551">
      <contour>
        <pt x="260" y="483" on="1"/>
        <pt x="150" y="483" on="0"/>
        <pt x="129" y="390" on="1"/>
        <pt x="46" y="390" on="1"/>
        <pt x="68" y="551" on="0"/>
        <pt x="259" y="551" on="1"/>
        <pt x="352" y="551" on="0"/>
        <pt x="468" y="458" on="0"/>
        <pt x="468" y="384" on="1"/>
        <pt x="468" y="333" on="0"/>
        <pt x="411" y="271" on="0"/>
        <pt x="360" y="252" on="1"/>
        <pt x="421" y="232" on="0"/>
        <pt x="493" y="137" on="0"/>
        <pt x="493" y="74" on="1"/>
        <pt x="493" y="-8" on="0"/>
        <pt x="364" y="-114" on="0"/>
        <pt x="160" y="-114" on="0"/>
        <pt x="28" y="-10" on="0"/>
        <pt x="28" y="88" on="1"/>
        <pt x="108" y="88" on="1"/>
        <pt x="110" y="19" on="0"/>
        <pt x="193" y="-46" on="0"/>
        <pt x="324" y="-46" on="0"/>
        <pt x="412" y="25" on="0"/>
        <pt x="412" y="79" on="1"/>
        <pt x="412" y="167" on="0"/>
        <pt x="323" y="200" on="1"/>
        <pt x="293" y="211" on="0"/>
        <pt x="251" y="211" on="1"/>
        <pt x="190" y="211" on="1"/>
        <pt x="190" y="274" on="1"/>
        <pt x="233" y="274" on="1"/>
        <pt x="305" y="274" on="0"/>
        <pt x="388" y="326" on="0"/>
        <pt x="388" y="424" on="0"/>
        <pt x="320" y="483" on="0"/>
      </contour>
    </TTGlyph>
    <TTGlyph name="tilde" xMin="23" yMin="719" xMax="339" yMax="842">
      <contour>
        <pt x="112" y="770" on="1"/>
        <pt x="80" y="770" on="0"/>
        <pt x="55" y="719" on="1"/>
        <pt x="23" y="738" on="1"/>
        <pt x="35" y="789" on="0"/>
        <pt x="81" y="842" on="0"/>
        <pt x="133" y="842" on="0"/>
        <pt x="166" y="825" on="1"/>
        <pt x="213" y="802" on="0"/>
        <pt x="240" y="790" on="0"/>
        <pt x="266" y="790" on="0"/>
        <pt x="294" y="815" on="0"/>
        <pt x="304" y="842" on="1"/>
        <pt x="339" y="819" on="1"/>
        <pt x="328" y="771" on="0"/>
        <pt x="279" y="719" on="0"/>
        <pt x="238" y="719" on="0"/>
        <pt x="204" y="731" on="0"/>
        <pt x="144" y="762" on="0"/>
        <pt x="123" y="770" on="0"/>
      </contour>
    </TTGlyph>
    <TTGlyph name="two" xMin="64" yMin="0" xMax="513" yMax="640">
      <contour>
        <pt x="143" y="73" on="1"/>
        <pt x="508" y="73" on="1"/>
        <pt x="508" y="0" on="1"/>
        <pt x="64" y="0" on="1"/>
        <pt x="64" y="93" on="1"/>
        <pt x="64" y="204" on="0"/>
        <pt x="148" y="256" on="1"/>
        <pt x="175" y="273" on="0"/>
        <pt x="208" y="286" on="1"/>
        <pt x="332" y="336" on="1"/>
        <pt x="428" y="374" on="0"/>
        <pt x="428" y="461" on="1"/>
        <pt x="428" y="509" on="0"/>
        <pt x="362" y="570" on="0"/>
        <pt x="243" y="570" on="0"/>
        <pt x="168" y="520" on="0"/>
        <pt x="162" y="470" on="1"/>
        <pt x="75" y="470" on="1"/>
        <pt x="80" y="552" on="0"/>
        <pt x="202" y="640" on="0"/>
        <pt x="393" y="640" on="0"/>
        <pt x="513" y="536" on="0"/>
        <pt x="513" y="383" on="0"/>
        <pt x="434" y="293" on="0"/>
        <pt x="365" y="266" on="1"/>
        <pt x="238" y="215" on="1"/>
        <pt x="190" y="195" on="0"/>
        <pt x="143" y="144" on="0"/>
        <pt x="143" y="103" on="1"/>
      </contour>
    </TTGlyph>
    <TTGlyph name="two.propold" xMin="64" yMin="0" xMax="501" yMax="551">
      <contour>
        <pt x="143" y="73" on="1"/>
        <pt x="500" y="73" on="1"/>
        <pt x="500" y="0" on="1"/>
        <pt x="64" y="0" on="1"/>
        <pt x="64" y="84" on="1"/>
        <pt x="64" y="164" on="0"/>
        <pt x="138" y="247" on="0"/>
        <pt x="214" y="264" on="1"/>
        <pt x="317" y="289" on="1"/>
        <pt x="370" y="301" on="0"/>
        <pt x="421" y="349" on="0"/>
        <pt x="421" y="427" on="0"/>
        <pt x="357" y="481" on="0"/>
        <pt x="241" y="481" on="0"/>
        <pt x="168" y="435" on="0"/>
        <pt x="162" y="388" on="1"/>
        <pt x="75" y="388" on="1"/>
        <pt x="80" y="466" on="0"/>
        <pt x="196" y="551" on="0"/>
        <pt x="385" y="551" on="0"/>
        <pt x="501" y="454" on="0"/>
        <pt x="501" y="322" on="0"/>
        <pt x="427" y="249" on="0"/>
        <pt x="351" y="231" on="1"/>
        <pt x="240" y="204" on="1"/>
        <pt x="143" y="182" on="0"/>
        <pt x="143" y="105" on="1"/>
      </contour>
    </TTGlyph>
    <TTGlyph name="u" xMin="87" yMin="-9" xMax="505" yMax="479">
      <contour>
        <pt x="426" y="95" on="1"/>
        <pt x="377" y="-9" on="0"/>
        <pt x="267" y="-9" on="1"/>
        <pt x="186" y="-9" on="0"/>
        <pt x="87" y="81" on="0"/>
        <pt x="87" y="175" on="1"/>
        <pt x="87" y="479" on="1"/>
        <pt x="166" y="479" on="1"/>
        <pt x="166" y="181" on="1"/>
        <pt x="166" y="60" on="0"/>
        <pt x="278" y="60" on="1"/>
        <pt x="343" y="60" on="0"/>
        <pt x="424" y="160" on="0"/>
        <pt x="426" y="238" on="1"/>
        <pt x="426" y="479" on="1"/>
        <pt x="505" y="479" on="1"/>
        <pt x="505" y="0" on="1"/>
        <pt x="426" y="0" on="1"/>
      </contour>
    </TTGlyph>
    <TTGlyph name="uacute" xMin="87" yMin="-9" xMax="505" yMax="769">
      <contour>
        <pt x="267" y="-9" on="1"/>
        <pt x="377" y="-9" on="0"/>
        <pt x="426" y="95" on="1"/>
        <pt x="426" y="0" on="1"/>
        <pt x="505" y="0" on="1"/>
        <pt x="505" y="479" on="1"/>
        <pt x="426" y="479" on="1"/>
        <pt x="426" y="246" on="1"/>
        <pt x="426" y="163" on="0"/>
        <pt x="344" y="60" on="0"/>
        <pt x="278" y="60" on="1"/>
        <pt x="166" y="60" on="0"/>
        <pt x="166" y="181" on="1"/>
        <pt x="166" y="479" on="1"/>
        <pt x="87" y="479" on="1"/>
        <pt x="87" y="175" on="1"/>
        <pt x="87" y="81" on="0"/>
        <pt x="186" y="-9" on="0"/>
      </contour>
      <contour>
        <pt x="433" y="699" on="1"/>
        <pt x="189" y="586" on="1"/>
        <pt x="166" y="636" on="1"/>
        <pt x="401" y="769" on="1"/>
      </contour>
    </TTGlyph>
    <TTGlyph name="ucircumflex" xMin="87" yMin="-9" xMax="505" yMax="781">
      <contour>
        <pt x="426" y="95" on="1"/>
        <pt x="377" y="-9" on="0"/>
        <pt x="267" y="-9" on="1"/>
        <pt x="186" y="-9" on="0"/>
        <pt x="87" y="81" on="0"/>
        <pt x="87" y="175" on="1"/>
        <pt x="87" y="479" on="1"/>
        <pt x="166" y="479" on="1"/>
        <pt x="166" y="181" on="1"/>
        <pt x="166" y="60" on="0"/>
        <pt x="278" y="60" on="1"/>
        <pt x="343" y="60" on="0"/>
        <pt x="424" y="160" on="0"/>
        <pt x="426" y="238" on="1"/>
        <pt x="426" y="479" on="1"/>
        <pt x="505" y="479" on="1"/>
        <pt x="505" y="0" on="1"/>
        <pt x="426" y="0" on="1"/>
      </contour>
      <contour>
        <pt x="480" y="625" on="1"/>
        <pt x="430" y="586" on="1"/>
        <pt x="301" y="694" on="1"/>
        <pt x="171" y="586" on="1"/>
        <pt x="121" y="625" on="1"/>
        <pt x="301" y="781" on="1"/>
      </contour>
    </TTGlyph>
    <TTGlyph name="udieresis" xMin="87" yMin="-9" xMax="505" yMax="705">
      <contour>
        <pt x="426" y="95" on="1"/>
        <pt x="377" y="-9" on="0"/>
        <pt x="267" y="-9" on="1"/>
        <pt x="186" y="-9" on="0"/>
        <pt x="87" y="81" on="0"/>
        <pt x="87" y="175" on="1"/>
        <pt x="87" y="479" on="1"/>
        <pt x="166" y="479" on="1"/>
        <pt x="166" y="181" on="1"/>
        <pt x="166" y="60" on="0"/>
        <pt x="278" y="60" on="1"/>
        <pt x="343" y="60" on="0"/>
        <pt x="424" y="160" on="0"/>
        <pt x="426" y="238" on="1"/>
        <pt x="426" y="479" on="1"/>
        <pt x="505" y="479" on="1"/>
        <pt x="505" y="0" on="1"/>
        <pt x="426" y="0" on="1"/>
      </contour>
      <contour>
        <pt x="193" y="605" on="0"/>
        <pt x="164" y="634" on="0"/>
        <pt x="164" y="676" on="0"/>
        <pt x="193" y="705" on="0"/>
        <pt x="216" y="705" on="1"/>
        <pt x="239" y="705" on="0"/>
        <pt x="270" y="676" on="0"/>
        <pt x="270" y="634" on="0"/>
        <pt x="239" y="605" on="0"/>
        <pt x="216" y="605" on="1"/>
      </contour>
      <contour>
        <pt x="362" y="605" on="0"/>
        <pt x="332" y="634" on="0"/>
        <pt x="332" y="676" on="0"/>
        <pt x="362" y="705" on="0"/>
        <pt x="407" y="705" on="0"/>
        <pt x="438" y="676" on="0"/>
        <pt x="438" y="634" on="0"/>
        <pt x="407" y="605" on="0"/>
      </contour>
    </TTGlyph>
    <TTGlyph name="ugrave" xMin="87" yMin="-9" xMax="505" yMax="769">
      <contour>
        <pt x="426" y="95" on="1"/>
        <pt x="377" y="-9" on="0"/>
        <pt x="267" y="-9" on="1"/>
        <pt x="186" y="-9" on="0"/>
        <pt x="87" y="81" on="0"/>
        <pt x="87" y="175" on="1"/>
        <pt x="87" y="479" on="1"/>
        <pt x="166" y="479" on="1"/>
        <pt x="166" y="181" on="1"/>
        <pt x="166" y="60" on="0"/>
        <pt x="278" y="60" on="1"/>
        <pt x="343" y="60" on="0"/>
        <pt x="424" y="160" on="0"/>
        <pt x="426" y="238" on="1"/>
        <pt x="426" y="479" on="1"/>
        <pt x="505" y="479" on="1"/>
        <pt x="505" y="0" on="1"/>
        <pt x="426" y="0" on="1"/>
      </contour>
      <contour>
        <pt x="200" y="769" on="1"/>
        <pt x="435" y="636" on="1"/>
        <pt x="412" y="586" on="1"/>
        <pt x="167" y="699" on="1"/>
      </contour>
    </TTGlyph>
    <TTGlyph name="underscore" xMin="55" yMin="-124" xMax="671" yMax="-56">
      <contour>
        <pt x="55" y="-56" on="1"/>
        <pt x="671" y="-56" on="1"/>
        <pt x="671" y="-124" on="1"/>
        <pt x="55" y="-124" on="1"/>
      </contour>
    </TTGlyph>
    <TTGlyph name="v" xMin="18" yMin="0" xMax="485" yMax="478">
      <contour>
        <pt x="107" y="478" on="1"/>
        <pt x="251" y="83" on="1"/>
        <pt x="396" y="478" on="1"/>
        <pt x="485" y="478" on="1"/>
        <pt x="295" y="0" on="1"/>
        <pt x="208" y="0" on="1"/>
        <pt x="18" y="478" on="1"/>
      </contour>
    </TTGlyph>
    <TTGlyph name="w" xMin="18" yMin="0" xMax="704" yMax="478">
      <contour>
        <pt x="100" y="478" on="1"/>
        <pt x="216" y="97" on="1"/>
        <pt x="330" y="455" on="1"/>
        <pt x="396" y="455" on="1"/>
        <pt x="509" y="93" on="1"/>
        <pt x="626" y="478" on="1"/>
        <pt x="704" y="478" on="1"/>
        <pt x="548" y="0" on="1"/>
        <pt x="471" y="0" on="1"/>
        <pt x="361" y="335" on="1"/>
        <pt x="253" y="0" on="1"/>
        <pt x="177" y="0" on="1"/>
        <pt x="18" y="478" on="1"/>
      </contour>
    </TTGlyph>
    <TTGlyph name="x" xMin="26" yMin="0" xMax="486" yMax="479">
      <contour>
        <pt x="485" y="0" on="1"/>
        <pt x="389" y="0" on="1"/>
        <pt x="252" y="181" on="1"/>
        <pt x="122" y="0" on="1"/>
        <pt x="26" y="0" on="1"/>
        <pt x="207" y="239" on="1"/>
        <pt x="26" y="479" on="1"/>
        <pt x="122" y="479" on="1"/>
        <pt x="259" y="299" on="1"/>
        <pt x="390" y="479" on="1"/>
        <pt x="486" y="479" on="1"/>
        <pt x="303" y="239" on="1"/>
      </contour>
    </TTGlyph>
    <TTGlyph name="y" xMin="5" yMin="-246" xMax="459" yMax="478">
      <contour>
        <pt x="5" y="-139" on="1"/>
        <pt x="54" y="-177" on="0"/>
        <pt x="108" y="-177" on="1"/>
        <pt x="148" y="-177" on="0"/>
        <pt x="177" y="-137" on="1"/>
        <pt x="198" y="-108" on="0"/>
        <pt x="215" y="-49" on="1"/>
        <pt x="229" y="0" on="1"/>
        <pt x="33" y="478" on="1"/>
        <pt x="121" y="478" on="1"/>
        <pt x="266" y="97" on="1"/>
        <pt x="379" y="478" on="1"/>
        <pt x="459" y="478" on="1"/>
        <pt x="280" y="-95" on="1"/>
        <pt x="257" y="-168" on="0"/>
        <pt x="182" y="-246" on="0"/>
        <pt x="67" y="-246" on="0"/>
        <pt x="5" y="-211" on="1"/>
      </contour>
    </TTGlyph>
    <TTGlyph name="z" xMin="53" yMin="0" xMax="423" yMax="478">
      <contour>
        <pt x="53" y="64" on="1"/>
        <pt x="334" y="414" on="1"/>
        <pt x="53" y="414" on="1"/>
        <pt x="53" y="478" on="1"/>
        <pt x="423" y="478" on="1"/>
        <pt x="423" y="414" on="1"/>
        <pt x="146" y="64" on="1"/>
        <pt x="423" y="64" on="1"/>
        <pt x="423" y="0" on="1"/>
        <pt x="53" y="0" on="1"/>
      </contour>
    </TTGlyph>
    <TTGlyph name="zero" xMin="51" yMin="-11" xMax="544" yMax="640">
      <contour>
        <pt x="412" y="640" on="0"/>
        <pt x="544" y="472" on="0"/>
        <pt x="544" y="157" on="0"/>
        <pt x="412" y="-11" on="0"/>
        <pt x="184" y="-11" on="0"/>
        <pt x="51" y="155" on="0"/>
        <pt x="51" y="474" on="0"/>
        <pt x="184" y="640" on="0"/>
      </contour>
      <contour>
        <pt x="462" y="437" on="0"/>
        <pt x="378" y="568" on="0"/>
        <pt x="217" y="568" on="0"/>
        <pt x="133" y="437" on="0"/>
        <pt x="133" y="192" on="0"/>
        <pt x="217" y="61" on="0"/>
        <pt x="378" y="61" on="0"/>
        <pt x="462" y="192" on="0"/>
      </contour>
    </TTGlyph>
    <TTGlyph name="zero.propold" xMin="51" yMin="-11" xMax="481" yMax="551">
      <contour>
        <pt x="167" y="551" on="0"/>
        <pt x="364" y="551" on="0"/>
        <pt x="481" y="405" on="0"/>
        <pt x="481" y="270" on="1"/>
        <pt x="481" y="135" on="0"/>
        <pt x="364" y="-11" on="0"/>
        <pt x="167" y="-11" on="0"/>
        <pt x="51" y="134" on="0"/>
        <pt x="51" y="270" on="1"/>
        <pt x="51" y="406" on="0"/>
      </contour>
      <contour>
        <pt x="400" y="270" on="1"/>
        <pt x="400" y="482" on="0"/>
        <pt x="266" y="482" on="1"/>
        <pt x="132" y="482" on="0"/>
        <pt x="132" y="270" on="1"/>
        <pt x="132" y="59" on="0"/>
        <pt x="266" y="59" on="1"/>
        <pt x="400" y="59" on="0"/>
      </contour>
    </TTGlyph>
</ttFont>
